<svg width="79" height="79" viewBox="0 0 79 79" fill="none" xmlns="http://www.w3.org/2000/svg">
<rect opacity="0.1" width="79" height="79" rx="15" fill="#6B0653"/>
<path fill-rule="evenodd" clip-rule="evenodd" d="M33.5313 26.5C32.0344 26.5 30.9168 26.9752 30.0801 27.8241C29.3017 28.6139 28.8464 29.6547 28.4775 30.5856L23.6371 43.494C23.5796 43.641 23.5254 43.7892 23.4744 43.9386C23.4569 43.9869 23.4427 44.0353 23.4321 44.084C23.2278 44.7665 23.1244 45.4751 23.125 46.1875C23.125 50.2261 26.3989 53.5 30.4375 53.5C34.4761 53.5 37.75 50.2261 37.75 46.1875V41.9363L37.7528 41.9356L42.25 41.9363V46.1875C42.25 50.2261 45.5239 53.5 49.5625 53.5C53.6011 53.5 56.875 50.2261 56.875 46.1875C56.875 45.4563 56.7677 44.7502 56.5679 44.0841C56.5451 44.0078 56.363 43.494 56.363 43.494L51.5672 30.7031L51.5225 30.5856C51.1536 29.6547 50.6984 28.6139 49.9199 27.8241C49.0832 26.9752 47.9656 26.5 46.4688 26.5C45.1725 26.5 44.0828 27.009 43.332 27.8786C42.5976 28.7294 42.25 29.8495 42.25 31V33.4475H37.75V31C37.75 29.8495 37.4024 28.7294 36.668 27.8786C35.9172 27.009 34.8275 26.5 33.5313 26.5ZM25.9375 46.1875C25.9375 43.7022 27.9522 41.6875 30.4375 41.6875C32.9228 41.6875 34.9375 43.7022 34.9375 46.1875C34.9375 48.6728 32.9228 50.6875 30.4375 50.6875C27.9522 50.6875 25.9375 48.6728 25.9375 46.1875ZM45.0625 46.1875C45.0625 43.7022 47.0772 41.6875 49.5625 41.6875C52.0478 41.6875 54.0625 43.7022 54.0625 46.1875C54.0625 48.6728 52.0478 50.6875 49.5625 50.6875C47.0772 50.6875 45.0625 48.6728 45.0625 46.1875Z" fill="#6B0653"/>
</svg>
