<svg width="79" height="79" viewBox="0 0 79 79" fill="none" xmlns="http://www.w3.org/2000/svg">
<rect opacity="0.1" width="79" height="79" rx="15" fill="#161C2D"/>
<path fill-rule="evenodd" clip-rule="evenodd" d="M28 25.5C28 25.1022 28.158 24.7206 28.4393 24.4393C28.7206 24.158 29.1022 24 29.5 24H50.5C50.8978 24 51.2794 24.158 51.5607 24.4393C51.842 24.7206 52 25.1022 52 25.5V52.5C52 52.7867 51.9178 53.0675 51.7632 53.309C51.6086 53.5505 51.388 53.7426 51.1275 53.8625C50.8671 53.9825 50.5777 54.0253 50.2937 53.9858C50.0097 53.9464 49.7429 53.8264 49.525 53.64L47.9755 52.3125C47.7037 52.0797 47.3576 51.9518 46.9998 51.9518C46.6419 51.9518 46.2958 52.0797 46.024 52.3125L44.476 53.6385C44.2041 53.8717 43.8577 53.9999 43.4995 53.9999C43.1413 53.9999 42.7949 53.8717 42.523 53.6385L40.9765 52.3125C40.7046 52.0793 40.3582 51.9511 40 51.9511C39.6418 51.9511 39.2954 52.0793 39.0235 52.3125L37.477 53.6385C37.2051 53.8717 36.8587 53.9999 36.5005 53.9999C36.1423 53.9999 35.7959 53.8717 35.524 53.6385L33.976 52.3125C33.7042 52.0797 33.3581 51.9518 33.0002 51.9518C32.6424 51.9518 32.2963 52.0797 32.0245 52.3125L30.4765 53.6385C30.2587 53.8253 29.992 53.9457 29.7078 53.9854C29.4237 54.0252 29.1341 53.9826 28.8735 53.8628C28.6128 53.7429 28.3919 53.5508 28.2371 53.3093C28.0823 53.0678 28 52.7869 28 52.5V25.5ZM35.5 30C35.1022 30 34.7206 30.158 34.4393 30.4393C34.158 30.7206 34 31.1022 34 31.5C34 31.8978 34.158 32.2794 34.4393 32.5607C34.7206 32.842 35.1022 33 35.5 33H44.5C44.8978 33 45.2794 32.842 45.5607 32.5607C45.842 32.2794 46 31.8978 46 31.5C46 31.1022 45.842 30.7206 45.5607 30.4393C45.2794 30.158 44.8978 30 44.5 30H35.5ZM35.5 36C35.1022 36 34.7206 36.158 34.4393 36.4393C34.158 36.7206 34 37.1022 34 37.5C34 37.8978 34.158 38.2794 34.4393 38.5607C34.7206 38.842 35.1022 39 35.5 39H44.5C44.8978 39 45.2794 38.842 45.5607 38.5607C45.842 38.2794 46 37.8978 46 37.5C46 37.1022 45.842 36.7206 45.5607 36.4393C45.2794 36.158 44.8978 36 44.5 36H35.5ZM37 43.5C37 43.1022 37.158 42.7206 37.4393 42.4393C37.7206 42.158 38.1022 42 38.5 42H44.5C44.8978 42 45.2794 42.158 45.5607 42.4393C45.842 42.7206 46 43.1022 46 43.5C46 43.8978 45.842 44.2794 45.5607 44.5607C45.2794 44.842 44.8978 45 44.5 45H38.5C38.1022 45 37.7206 44.842 37.4393 44.5607C37.158 44.2794 37 43.8978 37 43.5Z" fill="black"/>
</svg>
