<svg width="40" height="40" viewBox="0 0 40 40" fill="none" xmlns="http://www.w3.org/2000/svg">
<g id="bubble-chart-fill">
<path id="Path 29" fill-rule="evenodd" clip-rule="evenodd" d="M33.3314 12.4987C33.3314 7.43536 29.2281 3.33203 24.1647 3.33203C19.1014 3.33203 14.998 7.43536 14.998 12.4987C14.998 17.562 19.1014 21.6654 24.1647 21.6654C29.2281 21.6654 33.3314 17.562 33.3314 12.4987ZM9.9987 19.998C13.682 19.998 16.6654 22.9814 16.6654 26.6647C16.6654 30.348 13.682 33.3314 9.9987 33.3314C6.31537 33.3314 3.33203 30.348 3.33203 26.6647C3.33203 22.9814 6.31537 19.998 9.9987 19.998ZM26.666 26.666C29.4277 26.666 31.666 28.9044 31.666 31.666C31.666 34.4277 29.4277 36.666 26.666 36.666C23.9044 36.666 21.666 34.4277 21.666 31.666C21.666 28.9044 23.9044 26.666 26.666 26.666Z" fill="#416FF4"/>
</g>
</svg>
