<svg width="56" height="56" viewBox="0 0 56 56" fill="none" xmlns="http://www.w3.org/2000/svg">
<rect width="56" height="56" rx="8.4" fill="#FFE5F9"/>
<path d="M18.6673 38.5007C18.0257 38.5007 17.4765 38.2724 17.02 37.8158C16.5634 37.3593 16.3348 36.8098 16.334 36.1673V23.334C16.334 22.6923 16.5627 22.1432 17.02 21.6867C17.4773 21.2301 18.0264 21.0014 18.6673 21.0007H23.334V18.6673C23.334 18.0257 23.5627 17.4765 24.02 17.02C24.4773 16.5634 25.0264 16.3348 25.6673 16.334H30.334C30.9757 16.334 31.5252 16.5627 31.9825 17.02C32.4398 17.4773 32.6681 18.0264 32.6673 18.6673V21.0007H37.334C37.9757 21.0007 38.5252 21.2293 38.9825 21.6867C39.4398 22.144 39.6681 22.6931 39.6673 23.334V36.1673C39.6673 36.809 39.439 37.3585 38.9825 37.8158C38.5259 38.2731 37.9764 38.5014 37.334 38.5007H18.6673ZM25.6673 21.0007H30.334V18.6673H25.6673V21.0007Z" fill="#6B0653"/>
<g clip-path="url(#clip0_3255_30676)">
<path d="M30.6602 29.4016C30.6602 30.0699 30.9257 30.7109 31.3982 31.1835C31.8708 31.6561 32.5118 31.9216 33.1802 31.9216H38.5002C39.0008 31.9218 39.487 31.7543 39.8813 31.4459C40.2756 31.1374 40.5552 30.7057 40.6755 30.2198C40.7958 29.7338 40.7498 29.2216 40.5449 28.7648C40.34 28.3081 39.988 27.9331 39.5451 27.6998C39.6428 27.3552 39.6444 26.9906 39.5497 26.6452C39.455 26.2999 39.2675 25.987 39.0077 25.7406C38.7479 25.4941 38.4256 25.3235 38.0757 25.2472C37.7258 25.1708 37.3617 25.1917 37.0229 25.3074C36.7217 24.8035 36.2541 24.4205 35.7007 24.2246C35.1473 24.0286 34.5428 24.0321 33.9917 24.2343C33.4405 24.4365 32.9773 24.8248 32.6819 25.3322C32.3865 25.8395 32.2775 26.4341 32.3738 27.0132C31.8741 27.182 31.4401 27.5032 31.1326 27.9317C30.8252 28.3601 30.66 28.8743 30.6602 29.4016Z" fill="white"/>
</g>
<defs>
<clipPath id="clip0_3255_30676">
<rect width="11.2" height="11.2" fill="white" transform="translate(30.0996 22.4004)"/>
</clipPath>
</defs>
</svg>
