<svg width="41" height="40" viewBox="0 0 41 40" fill="none" xmlns="http://www.w3.org/2000/svg">
<g clip-path="url(#clip0_3661_29954)">
<path d="M20.3554 -0.0477835C20.2903 -0.0360347 20.2261 -0.0201042 20.1631 -9.12286e-05C19.8157 0.0777575 19.5062 0.273637 19.2871 0.554169C19.068 0.8347 18.9529 1.18252 18.9615 1.53837V3.07683H5.11538C3.89131 3.07683 2.71737 3.56309 1.85181 4.42865C0.986262 5.2942 0.5 6.46814 0.5 7.69222L0.5 27.6922C0.5 30.2399 2.56769 32.3076 5.11538 32.3076H18.9615V32.8845L10.5954 37.0676C10.2257 37.2461 9.9421 37.5642 9.80693 37.9518C9.67176 38.3394 9.69611 38.7648 9.87462 39.1345C10.0531 39.5042 10.3712 39.7878 10.7588 39.923C11.1464 40.0582 11.5719 40.0338 11.9415 39.8553L18.9615 36.3461V36.923C18.9615 37.331 19.1236 37.7223 19.4121 38.0108C19.7007 38.2994 20.092 38.4614 20.5 38.4614C20.908 38.4614 21.2993 38.2994 21.5879 38.0108C21.8764 37.7223 22.0385 37.331 22.0385 36.923V36.3461L29.0585 39.8553C29.4281 40.0338 29.8536 40.0582 30.2412 39.923C30.6288 39.7878 30.9469 39.5042 31.1254 39.1345C31.3039 38.7648 31.3282 38.3394 31.1931 37.9518C31.0579 37.5642 30.7743 37.2461 30.4046 37.0676L22.0385 32.8845V32.3076H35.8846C38.4323 32.3076 40.5 30.2399 40.5 27.6922V7.69222C40.5 6.46814 40.0137 5.2942 39.1482 4.42865C38.2826 3.56309 37.1087 3.07683 35.8846 3.07683H22.0385V1.53837C22.0462 1.3196 22.0072 1.10169 21.924 0.899195C21.8409 0.696704 21.7154 0.514296 21.5561 0.364158C21.3968 0.21402 21.2073 0.0996096 21.0002 0.0285709C20.7932 -0.0424678 20.5733 -0.068499 20.3554 -0.0477835ZM3.57692 7.69222H37.4231V27.6922H3.57692V7.69222ZM32.6154 9.23068C32.2708 9.26772 31.9488 9.42006 31.7015 9.66298L26.6538 14.7122L23.1446 11.1999C22.9766 11.0275 22.7704 10.8969 22.5426 10.8187C22.3149 10.7404 22.072 10.7167 21.8334 10.7495C21.5949 10.7823 21.3674 10.8706 21.1692 11.0074C20.971 11.1441 20.8076 11.3255 20.6923 11.5368L16.1246 19.5184L14.2492 14.8061C14.1582 14.5627 14.007 14.3465 13.8097 14.1774C13.6125 14.0083 13.3757 13.8919 13.1213 13.8391C12.8669 13.7862 12.6033 13.7986 12.3551 13.8752C12.1068 13.9517 11.882 14.0899 11.7015 14.2768L7.08615 18.8922C6.94069 19.0376 6.82528 19.2102 6.74652 19.4001C6.66775 19.5901 6.62718 19.7937 6.62711 19.9994C6.62704 20.205 6.66747 20.4087 6.7461 20.5987C6.82473 20.7887 6.94002 20.9614 7.08538 21.1068C7.23075 21.2523 7.40334 21.3677 7.5933 21.4465C7.78327 21.5252 7.98689 21.5658 8.19253 21.5659C8.39818 21.5659 8.60183 21.5255 8.79185 21.4469C8.98186 21.3682 9.15454 21.253 9.3 21.1076L12.2323 18.1753L14.4446 23.6553C14.549 23.9301 14.73 24.1693 14.9661 24.3445C15.2022 24.5196 15.4836 24.6235 15.7769 24.6437C16.0702 24.664 16.3632 24.5997 16.6211 24.4586C16.879 24.3175 17.0911 24.1055 17.2323 23.8476L22.3769 14.8568L25.5492 18.0307C25.6927 18.1791 25.8646 18.2971 26.0546 18.3777C26.2446 18.4583 26.449 18.4999 26.6554 18.4999C26.8618 18.4999 27.0661 18.4583 27.2562 18.3777C27.4462 18.2971 27.6181 18.1791 27.7615 18.0307L33.9154 11.8768C34.1584 11.6518 34.3224 11.3544 34.3828 11.0288C34.4433 10.7032 34.3971 10.3668 34.2511 10.0695C34.105 9.77226 33.867 9.53007 33.5723 9.37894C33.2776 9.22781 32.942 9.17582 32.6154 9.23068Z" fill="#6B0653"/>
</g>
<defs>
<clipPath id="clip0_3661_29954">
<rect width="40" height="40" fill="white" transform="translate(0.5)"/>
</clipPath>
</defs>
</svg>
