<svg width="79" height="79" viewBox="0 0 79 79" fill="none" xmlns="http://www.w3.org/2000/svg">
<rect opacity="0.1" width="79" height="79" rx="15" fill="#6B0653"/>
<path d="M38.137 43.788C38.589 44.24 39.179 44.4475 39.907 44.4105C40.637 44.3725 41.176 44.115 41.524 43.638L49.4035 32.6535L38.362 40.4775C37.866 40.8115 37.5865 41.329 37.5235 42.03C37.4605 42.731 37.665 43.317 38.137 43.788ZM29.65 49.5C29.37 49.5 29.114 49.4295 28.882 49.2885C28.65 49.1465 28.454 48.9535 28.294 48.7095C27.702 47.6885 27.255 46.6095 26.953 45.4725C26.651 44.3355 26.5 43.178 26.5 42C26.5 40.136 26.855 38.383 27.565 36.741C28.276 35.099 29.2395 33.6705 30.4555 32.4555C31.6705 31.2385 33.099 30.275 34.741 29.565C36.383 28.855 38.136 28.5 40 28.5C41.858 28.5 43.6005 28.849 45.2275 29.547C46.8545 30.245 48.2805 31.1955 49.5055 32.3985C50.7305 33.6015 51.6995 35.01 52.4125 36.624C53.1255 38.238 53.4855 39.974 53.4925 41.832C53.4975 43.072 53.3505 44.2765 53.0515 45.4455C52.7525 46.6145 52.301 47.741 51.697 48.825C51.557 49.069 51.366 49.2425 51.124 49.3455C50.883 49.4485 50.622 49.5 50.341 49.5H29.65Z" fill="#6B0653"/>
</svg>
