<svg width="79" height="79" viewBox="0 0 79 79" fill="none" xmlns="http://www.w3.org/2000/svg">
<rect opacity="0.1" width="79" height="79" rx="15" fill="#6B0653"/>
<path d="M48.3327 35L43.2593 42.61C43.0975 42.8531 42.8747 43.0495 42.6131 43.1794C42.3515 43.3093 42.0603 43.3681 41.7688 43.3501C41.4773 43.332 41.1956 43.2377 40.9521 43.0765C40.7085 42.9153 40.5116 42.6929 40.381 42.4317L39.6177 40.9017C39.4871 40.6404 39.2902 40.418 39.0466 40.2569C38.8031 40.0957 38.5214 40.0013 38.2299 39.9833C37.9384 39.9652 37.6472 40.0241 37.3856 40.1539C37.124 40.2838 36.9012 40.4802 36.7393 40.7233L31.666 48.3333" stroke="#6B0653" stroke-width="4" stroke-linecap="round" stroke-linejoin="round"/>
<path d="M51.6667 25H28.3333C26.4924 25 25 26.4924 25 28.3333V51.6667C25 53.5076 26.4924 55 28.3333 55H51.6667C53.5076 55 55 53.5076 55 51.6667V28.3333C55 26.4924 53.5076 25 51.6667 25Z" stroke="#6B0653" stroke-width="4"/>
</svg>
