<svg width="40" height="40" viewBox="0 0 40 40" fill="none" xmlns="http://www.w3.org/2000/svg">
<g id="money-dollar-circle-fill" clip-path="url(#clip0_3292_32361)">
<path id="Path 31" fill-rule="evenodd" clip-rule="evenodd" d="M2 20C2 29.9414 10.0586 38 20 38C29.9414 38 38 29.9414 38 20C38 10.0586 29.9414 2 20 2C10.0586 2 2 10.0586 2 20ZM13.7004 27.1992V23.5992H23.6004C24.0974 23.5992 24.5004 23.1963 24.5004 22.6992C24.5004 22.2022 24.0974 21.7992 23.6004 21.7992H16.4004C13.9151 21.7992 11.9004 19.7845 11.9004 17.2992C11.9004 14.8139 13.9151 12.7992 16.4004 12.7992H18.2004V9.19922H21.8004V12.7992H26.3004V16.3992H16.4004C15.9033 16.3992 15.5004 16.8022 15.5004 17.2992C15.5004 17.7963 15.9033 18.1992 16.4004 18.1992H23.6004C26.0857 18.1992 28.1004 20.2139 28.1004 22.6992C28.1004 25.1845 26.0857 27.1992 23.6004 27.1992H21.8004V30.7992H18.2004V27.1992H13.7004Z" fill="#2BD67B"/>
</g>
<defs>
<clipPath id="clip0_3292_32361">
<rect width="40" height="40" fill="white"/>
</clipPath>
</defs>
</svg>
