<svg width="40" height="40" viewBox="0 0 40 40" fill="none" xmlns="http://www.w3.org/2000/svg">
<g id="earth-fill">
<path id="Path 41" fill-rule="evenodd" clip-rule="evenodd" d="M19.9987 36.6654C10.7937 36.6654 3.33203 29.2037 3.33203 19.9987C3.33203 10.7937 10.7937 3.33203 19.9987 3.33203C29.2037 3.33203 36.6654 10.7937 36.6654 19.9987C36.6654 29.2037 29.2037 36.6654 19.9987 36.6654ZM30.5907 26.5859V26.4109C30.5907 24.8743 30.5907 24.1726 29.504 23.5509C29.1547 23.3529 28.796 23.1721 28.429 23.0093L28.4203 23.0053C27.8135 22.7292 27.4097 22.5455 26.8657 21.7493C26.8004 21.6543 26.7359 21.5587 26.6723 21.4626C26.0973 20.5876 25.6823 19.9576 24.1023 20.2076C20.994 20.7009 20.764 21.2476 20.6273 22.1709L20.6057 22.3226C20.404 23.6726 20.3673 24.1259 20.9307 24.7176C23.039 26.9293 24.3023 28.5243 24.6857 29.4576C24.8723 29.9126 25.3523 31.2909 25.0223 32.6543C27.0454 31.8485 28.8461 30.57 30.274 28.9259C30.4573 28.3026 30.5907 27.5259 30.5907 26.5859ZM10.1719 10.5801C12.6485 7.99673 16.1369 6.38673 19.9985 6.38673C21.9019 6.38474 23.7844 6.78338 25.5235 7.55672C24.6002 8.17672 23.1102 9.18172 22.6235 9.84839C22.569 9.92317 22.5088 10.0727 22.4342 10.2581C22.2012 10.8371 21.8271 11.7666 21.0419 11.8651C20.776 11.8991 20.4249 11.8764 20.05 11.8521L20.0185 11.8501L20.0172 11.85C18.9806 11.7833 17.565 11.6923 17.1119 12.9234C16.8235 13.7051 16.7719 15.8217 17.7052 16.9217C17.8535 17.0984 17.8835 17.4217 17.7802 17.7884C17.6485 18.2667 17.3802 18.5584 17.2969 18.6184C17.1352 18.5251 16.8135 18.1534 16.5969 17.9017C16.0752 17.2934 15.4219 16.5351 14.5785 16.3017C14.2954 16.2232 13.9866 16.1575 13.6824 16.0928C13.6572 16.0874 13.632 16.0821 13.6069 16.0767C12.6919 15.8867 11.6552 15.6667 11.4152 15.1534C11.2402 14.7784 11.2402 14.2584 11.2402 13.7117C11.2402 13.0167 11.2402 12.2317 10.9002 11.4701C10.7235 11.0734 10.4669 10.7851 10.1719 10.5801Z" fill="#416FF4"/>
</g>
</svg>
