<svg width="132" height="18" viewBox="0 0 132 18" fill="none" xmlns="http://www.w3.org/2000/svg">
<g clip-path="url(#clip0_2247_481)">
<g clip-path="url(#clip1_2247_481)">
<g clip-path="url(#clip2_2247_481)">
<path d="M3.84418 0V16.1221H0.435547V0H3.84418ZM9.72474 0V16.1221H6.31611V0H9.72474ZM12.1967 16.1221V0H23.0602V2.81035H15.6053V6.65195H22.5013V9.4623H15.6053V13.3117H23.0917V16.1221H12.1967ZM28.7282 0V16.1221H25.3747V0H28.7282ZM36.5926 16.3583C35.3488 16.3583 34.2782 16.1064 33.3808 15.6026C32.4886 15.0935 31.8011 14.3745 31.3182 13.4456C30.8355 12.5115 30.5941 11.4067 30.5941 10.1315C30.5941 8.88764 30.8355 7.79604 31.3182 6.85663C31.8011 5.91723 32.4807 5.18511 33.3572 4.66031C34.2389 4.1355 35.2727 3.87309 36.4588 3.87309C37.2564 3.87309 37.9991 4.00167 38.6866 4.25882C39.3793 4.51073 39.9829 4.89123 40.4972 5.40028C41.0167 5.90935 41.4209 6.54962 41.7095 7.32108C41.9981 8.08731 42.1424 8.98474 42.1424 10.0134V10.9344H31.9323V8.85615H38.9857C38.9857 8.37333 38.8807 7.94561 38.6708 7.573C38.4609 7.20038 38.1696 6.90911 37.797 6.69919C37.4296 6.48402 37.0019 6.37643 36.5139 6.37643C36.0048 6.37643 35.5534 6.49451 35.1598 6.73068C34.7715 6.96159 34.4671 7.27386 34.2467 7.66746C34.0263 8.05582 33.9134 8.48879 33.9082 8.96637V10.9423C33.9082 11.5405 34.0184 12.0574 34.2389 12.493C34.4645 12.9286 34.782 13.2646 35.1914 13.5007C35.6007 13.7369 36.0862 13.855 36.6477 13.855C37.0203 13.855 37.3614 13.8025 37.6711 13.6976C37.9807 13.5926 38.2457 13.4351 38.4662 13.2252C38.6866 13.0153 38.8545 12.7582 38.97 12.4537L42.0716 12.6584C41.9141 13.4036 41.5914 14.0544 41.1034 14.6107C40.6205 15.1618 39.996 15.5921 39.2298 15.9018C38.4688 16.2061 37.5897 16.3583 36.5926 16.3583ZM54.9465 4.03053L50.7192 16.1221H46.9406L42.7133 4.03053H46.2557L48.7669 12.682H48.8929L51.3962 4.03053H54.9465ZM61.451 16.3583C60.2072 16.3583 59.1366 16.1064 58.2392 15.6026C57.347 15.0935 56.6595 14.3745 56.1767 13.4456C55.6938 12.5115 55.4524 11.4067 55.4524 10.1315C55.4524 8.88764 55.6938 7.79604 56.1767 6.85663C56.6595 5.91723 57.3391 5.18511 58.2155 4.66031C59.0972 4.1355 60.1311 3.87309 61.3172 3.87309C62.1148 3.87309 62.8575 4.00167 63.545 4.25882C64.2377 4.51073 64.8413 4.89123 65.3556 5.40028C65.8751 5.90935 66.2792 6.54962 66.5679 7.32108C66.8566 8.08731 67.0009 8.98474 67.0009 10.0134V10.9344H56.7907V8.85615H63.8441C63.8441 8.37333 63.7392 7.94561 63.5293 7.573C63.3193 7.20038 63.0281 6.90911 62.6554 6.69919C62.2881 6.48402 61.8603 6.37643 61.3722 6.37643C60.8632 6.37643 60.4118 6.49451 60.0183 6.73068C59.6299 6.96159 59.3255 7.27386 59.105 7.66746C58.8847 8.05582 58.7718 8.48879 58.7666 8.96637V10.9423C58.7666 11.5405 58.8768 12.0574 59.0972 12.493C59.3229 12.9286 59.6404 13.2646 60.0497 13.5007C60.4591 13.7369 60.9446 13.855 61.5061 13.855C61.8787 13.855 62.2198 13.8025 62.5295 13.6976C62.8391 13.5926 63.1041 13.4351 63.3245 13.2252C63.545 13.0153 63.713 12.7582 63.8283 12.4537L66.93 12.6584C66.7725 13.4036 66.4498 14.0544 65.9617 14.6107C65.4789 15.1618 64.8544 15.5921 64.0882 15.9018C63.3271 16.2061 62.4482 16.3583 61.451 16.3583ZM72.2103 9.13168V16.1221H68.8568V4.03053H72.0528V6.16389H72.1946C72.4622 5.46064 72.9109 4.90434 73.5407 4.49499C74.1705 4.08039 74.9341 3.87309 75.8315 3.87309C76.6712 3.87309 77.4033 4.05677 78.0278 4.42414C78.6523 4.79151 79.1378 5.31632 79.4841 5.99856C79.8306 6.67557 80.0038 7.48378 80.0038 8.42318V16.1221H76.6502V9.02146C76.6554 8.28149 76.4665 7.7042 76.0834 7.2896C75.7003 6.86975 75.1729 6.65982 74.5011 6.65982C74.0498 6.65982 73.6509 6.75692 73.3045 6.9511C72.9634 7.14528 72.6958 7.42868 72.5015 7.80129C72.3126 8.16865 72.2156 8.61212 72.2103 9.13168ZM82.3772 16.1221V0H85.7859V13.3117H92.6976V16.1221H82.3772ZM98.0075 16.3505C97.236 16.3505 96.5485 16.2167 95.9449 15.9489C95.3415 15.6761 94.8638 15.2746 94.5122 14.7445C94.1659 14.2092 93.9926 13.5427 93.9926 12.745C93.9926 12.0733 94.116 11.5091 94.3626 11.0524C94.6093 10.5959 94.9452 10.2285 95.3703 9.95038C95.7954 9.67223 96.2783 9.4623 96.8187 9.32061C97.3646 9.17891 97.9366 9.0792 98.5349 9.02146C99.2382 8.948 99.805 8.87977 100.235 8.81679C100.666 8.74857 100.978 8.64885 101.173 8.51765C101.366 8.38645 101.464 8.19227 101.464 7.93511V7.88788C101.464 7.38931 101.306 7.00358 100.991 6.73068C100.681 6.45777 100.24 6.32133 99.6684 6.32133C99.065 6.32133 98.5847 6.45515 98.2278 6.7228C97.871 6.98521 97.6348 7.31584 97.5194 7.71469L94.4178 7.46279C94.5752 6.72805 94.8848 6.09303 95.3467 5.55772C95.8085 5.01718 96.4042 4.60258 97.1336 4.31393C97.8684 4.02004 98.7185 3.87309 99.6843 3.87309C100.356 3.87309 100.999 3.95181 101.613 4.10925C102.233 4.26669 102.781 4.51073 103.258 4.84137C103.741 5.17199 104.122 5.59709 104.4 6.11665C104.678 6.63097 104.817 7.24762 104.817 7.9666V16.1221H101.636V14.4453H101.542C101.348 14.8232 101.088 15.1565 100.762 15.4451C100.437 15.7286 100.046 15.9515 99.5897 16.1143C99.1332 16.2717 98.6057 16.3505 98.0075 16.3505ZM98.9678 14.036C99.4612 14.036 99.8968 13.9389 100.275 13.7447C100.652 13.5453 100.949 13.2777 101.164 12.9418C101.379 12.6059 101.487 12.2254 101.487 11.8003V10.5172C101.382 10.5854 101.238 10.6484 101.054 10.7061C100.875 10.7586 100.673 10.8085 100.448 10.8556C100.222 10.8977 99.9965 10.9371 99.7708 10.9737C99.5451 11.0053 99.3405 11.0341 99.1568 11.0604C98.7632 11.1181 98.4195 11.2099 98.1256 11.3359C97.8316 11.4618 97.6034 11.6324 97.4407 11.8476C97.2779 12.0574 97.1966 12.3199 97.1966 12.6348C97.1966 13.0914 97.362 13.4403 97.6926 13.6817C98.0284 13.9179 98.4535 14.036 98.9678 14.036ZM107.149 16.1221V0H110.502V6.06154H110.605C110.752 5.73617 110.965 5.40553 111.243 5.06966C111.526 4.72853 111.894 4.44514 112.344 4.21947C112.802 3.98855 113.368 3.87309 114.045 3.87309C114.927 3.87309 115.74 4.10401 116.486 4.56584C117.23 5.02242 117.827 5.71255 118.272 6.63621C118.718 7.55463 118.941 8.70658 118.941 10.0921C118.941 11.4409 118.723 12.5797 118.288 13.5085C117.858 14.4322 117.27 15.1328 116.525 15.6105C115.785 16.0827 114.956 16.3189 114.037 16.3189C113.386 16.3189 112.833 16.2113 112.376 15.9962C111.925 15.7811 111.555 15.5107 111.266 15.1853C110.978 14.8547 110.757 14.5215 110.605 14.1856H110.455V16.1221H107.149ZM110.432 10.0763C110.432 10.7953 110.531 11.4224 110.731 11.9578C110.93 12.493 111.219 12.9103 111.597 13.2095C111.974 13.5033 112.434 13.6503 112.974 13.6503C113.52 13.6503 113.982 13.5007 114.359 13.2016C114.737 12.8972 115.023 12.4773 115.218 11.9421C115.417 11.4015 115.517 10.7796 115.517 10.0763C115.517 9.37834 115.42 8.76432 115.226 8.23425C115.032 7.7042 114.745 7.28959 114.368 6.99046C113.99 6.69131 113.525 6.54175 112.974 6.54175C112.429 6.54175 111.966 6.68607 111.588 6.97471C111.217 7.26336 110.93 7.67271 110.731 8.20276C110.531 8.73283 110.432 9.35735 110.432 10.0763ZM130.907 7.47853L127.838 7.66746C127.784 7.40506 127.672 7.16889 127.499 6.95897C127.326 6.7438 127.097 6.57324 126.814 6.44728C126.536 6.31608 126.202 6.25047 125.814 6.25047C125.294 6.25047 124.856 6.36069 124.499 6.58111C124.143 6.79628 123.964 7.08492 123.964 7.44704C123.964 7.73568 124.079 7.97972 124.311 8.17915C124.542 8.37857 124.938 8.53865 125.499 8.65935L127.687 9.10019C128.863 9.3416 129.74 9.72996 130.317 10.2653C130.894 10.8005 131.183 11.5039 131.183 12.3749C131.183 13.1675 130.949 13.8628 130.483 14.4612C130.02 15.0594 129.385 15.5265 128.577 15.8624C127.774 16.193 126.848 16.3583 125.798 16.3583C124.198 16.3583 122.922 16.025 121.972 15.3586C121.028 14.6868 120.474 13.7736 120.312 12.619L123.61 12.4459C123.709 12.9339 123.951 13.3065 124.334 13.5637C124.717 13.8156 125.208 13.9415 125.806 13.9415C126.394 13.9415 126.866 13.8288 127.223 13.6031C127.586 13.3721 127.769 13.0757 127.774 12.7135C127.769 12.4091 127.64 12.1598 127.388 11.9656C127.136 11.7662 126.748 11.614 126.223 11.5091L124.129 11.0918C122.949 10.8556 122.07 10.4463 121.492 9.86378C120.92 9.28125 120.634 8.53865 120.634 7.63597C120.634 6.85925 120.844 6.19012 121.264 5.62858C121.689 5.06704 122.284 4.63407 123.051 4.32967C123.822 4.02529 124.725 3.87309 125.759 3.87309C127.286 3.87309 128.487 4.19585 129.364 4.84137C130.246 5.48688 130.761 6.36594 130.907 7.47853Z" fill="#36364A"/>
</g>
</g>
</g>
<defs>
<clipPath id="clip0_2247_481">
<rect width="132" height="17.13" fill="white"/>
</clipPath>
<clipPath id="clip1_2247_481">
<rect width="132" height="17.13" fill="white"/>
</clipPath>
<clipPath id="clip2_2247_481">
<rect width="132" height="17.1298" fill="white"/>
</clipPath>
</defs>
</svg>
