<svg width="24" height="24" viewBox="0 0 24 24" fill="none" xmlns="http://www.w3.org/2000/svg">
<g clip-path="url(#clip0_3665_1415)">
<path d="M0.857422 21.4289V2.57171C0.857422 2.11705 1.03803 1.68102 1.35952 1.35952C1.68102 1.03803 2.11705 0.857422 2.57171 0.857422H21.4289C21.8835 0.857422 22.3195 1.03803 22.641 1.35952C22.9625 1.68102 23.1431 2.11705 23.1431 2.57171V21.4289C23.1431 21.8835 22.9625 22.3195 22.641 22.641C22.3195 22.9625 21.8835 23.1431 21.4289 23.1431H16.286V15.0174H17.5031C17.7805 15.0174 18.0465 14.9072 18.2426 14.7111C18.4387 14.515 18.5489 14.249 18.5489 13.9717V12.6517C18.5489 12.3744 18.4387 12.1084 18.2426 11.9123C18.0465 11.7162 17.7805 11.606 17.5031 11.606H16.3546V9.99456C16.3546 8.55456 17.006 8.55456 17.6574 8.55456H18.4974C18.6354 8.56025 18.7729 8.53556 18.9003 8.48224C19.0277 8.42892 19.1418 8.34827 19.2346 8.24599C19.3342 8.15115 19.4131 8.03667 19.4662 7.90979C19.5193 7.7829 19.5455 7.64638 19.5431 7.50885V6.24028C19.5477 6.10068 19.5247 5.96156 19.4755 5.83085C19.4263 5.70014 19.3518 5.58042 19.2562 5.47853C19.1607 5.37663 19.046 5.29457 18.9188 5.23702C18.7915 5.17947 18.6542 5.14757 18.5146 5.14314H16.5431C15.9679 5.12151 15.3948 5.22501 14.8635 5.44649C14.3322 5.66797 13.8553 6.00215 13.4657 6.42594C13.0761 6.84973 12.7832 7.35304 12.6072 7.9011C12.4311 8.44916 12.3761 9.0289 12.446 9.60028V11.606H11.3489C11.2101 11.6037 11.0723 11.6291 10.9434 11.6806C10.8145 11.7322 10.6972 11.8088 10.5983 11.9061C10.4994 12.0035 10.4208 12.1195 10.3672 12.2475C10.3136 12.3755 10.286 12.5129 10.286 12.6517V13.9717C10.286 14.1105 10.3136 14.2479 10.3672 14.3759C10.4208 14.5039 10.4994 14.6199 10.5983 14.7173C10.6972 14.8146 10.8145 14.8913 10.9434 14.9428C11.0723 14.9943 11.2101 15.0197 11.3489 15.0174H12.446V23.1431H2.57171C2.11705 23.1431 1.68102 22.9625 1.35952 22.641C1.03803 22.3195 0.857422 21.8835 0.857422 21.4289Z" stroke="#393939" stroke-width="2" stroke-linecap="round" stroke-linejoin="round"/>
</g>
<defs>
<clipPath id="clip0_3665_1415">
<rect width="24" height="24" fill="white"/>
</clipPath>
</defs>
</svg>
