<svg width="105" height="24" viewBox="0 0 105 24" fill="none" xmlns="http://www.w3.org/2000/svg">
<g clip-path="url(#clip0_2247_460)">
<g clip-path="url(#clip1_2247_460)">
<g clip-path="url(#clip2_2247_460)">
<mask id="mask0_2247_460" style="mask-type:luminance" maskUnits="userSpaceOnUse" x="0" y="0" width="105" height="24">
<path d="M104.565 0H0V24H104.565V0Z" fill="white"/>
</mask>
<g mask="url(#mask0_2247_460)">
<path d="M5.94947 13.121C5.65385 13.415 5.28431 13.562 4.84087 13.562H3.32579H1.14555C0.812972 13.562 0.554299 13.4518 0.332579 13.2312C0.147813 13.0107 0 12.7534 0 12.4227V6.79939V1.13936C0 0.808576 0.147813 0.551302 0.332579 0.330781C0.554299 0.147014 0.849924 0 1.14555 0H4.54525H7.94495C8.27753 0 8.5362 0.147014 8.75792 0.330781C8.97964 0.551302 9.0905 0.808576 9.0905 1.13936V5.54977V9.33537C9.0905 9.73966 8.94268 10.1439 8.64706 10.4012L7.31674 11.7243L5.94947 13.121Z" fill="#36364A"/>
<path d="M10.8654 5.9173C10.5697 5.62328 10.4219 5.25574 10.4219 4.85145V3.30781V1.13936C10.4219 0.808576 10.5697 0.551302 10.7545 0.330781C10.9762 0.147014 11.2719 0 11.5675 0H17.2213H22.9121C23.2447 0 23.5034 0.147014 23.7251 0.330781C23.9468 0.551302 24.0577 0.808576 24.0577 1.13936V4.52067V7.90199C24.0577 8.23277 23.9098 8.49005 23.7251 8.71057C23.5034 8.93109 23.2447 9.04135 22.9121 9.04135H18.4777H14.6346C14.2281 9.04135 13.8217 8.89433 13.526 8.60031L12.1957 7.27718L10.8654 5.9173Z" fill="#36364A"/>
<path d="M18.1428 10.8785C18.4384 10.5845 18.8079 10.4375 19.2514 10.4375H20.7665H22.9098C23.2423 10.4375 23.501 10.5845 23.7227 10.7683C23.9445 10.9888 24.0553 11.2461 24.0553 11.5768V17.2001V22.8234C24.0553 23.1542 23.9075 23.4115 23.7227 23.632C23.501 23.8525 23.2423 23.9628 22.9098 23.9628H19.51H16.1103C15.7777 23.9628 15.5191 23.8157 15.2973 23.632C15.0756 23.4115 14.9648 23.1542 14.9648 22.8234V18.413V14.6274C14.9648 14.2231 15.1126 13.8188 15.4082 13.5615L16.7385 12.2384L18.1428 10.8785Z" fill="#36364A"/>
<path d="M13.1923 18.0831C13.4879 18.3771 13.6357 18.7446 13.6357 19.1857V20.6926V22.861C13.6357 23.1918 13.4879 23.4491 13.3031 23.6696C13.0814 23.8901 12.8227 24.0004 12.4902 24.0004H6.83635H1.14555C0.812972 24.0004 0.554299 23.8534 0.332579 23.6696C0.147813 23.4491 0 23.1551 0 22.861V19.4797V16.0984C0 15.7676 0.147813 15.5103 0.332579 15.2898C0.554299 15.0693 0.812972 14.959 1.14555 14.959H5.57994H9.38612C9.79261 14.959 10.199 15.1061 10.4577 15.4001L11.788 16.7232L13.1923 18.0831Z" fill="#36364A"/>
<path d="M62.2317 18.0822C62.0839 18.1924 61.9361 18.3027 61.8252 18.3762C61.7143 18.4497 61.6404 18.4865 61.5665 18.5232C61.4926 18.56 61.4187 18.5967 61.3818 18.5967C61.3078 18.5967 61.2709 18.5967 61.16 18.5967C60.8644 18.5967 60.6427 18.4497 60.5318 18.1924C60.421 17.8984 60.3471 17.3839 60.3471 16.612V13.047C60.3471 12.4221 60.3101 11.9076 60.2362 11.5768C60.1623 11.246 60.0514 10.9153 59.8667 10.6212C59.2754 9.7024 58.1298 9.22461 56.467 9.22461C55.2476 9.22461 54.2498 9.44513 53.5108 9.84942C52.7717 10.2537 52.4391 10.8417 52.4391 11.5768C52.4391 11.9444 52.55 12.2751 52.7717 12.4957C52.9934 12.7162 53.2891 12.8632 53.6216 12.8632C53.9912 12.8632 54.3237 12.7529 54.5455 12.5324C54.7672 12.3119 54.915 12.0179 54.915 11.6871C54.915 11.393 54.8041 11.1358 54.6194 10.952C54.4716 10.805 54.3977 10.7315 54.3977 10.7315C54.3607 10.6947 54.3607 10.6947 54.3607 10.658C54.3607 10.5845 54.3977 10.511 54.5085 10.4007C54.6194 10.3272 54.7302 10.2537 54.878 10.1802C55.0259 10.1067 55.2106 10.0699 55.3954 10.0332C55.5802 9.99643 55.8019 9.99643 55.9866 9.99643C56.9844 9.99643 57.6495 10.2904 57.982 10.8785C58.0559 11.0255 58.1298 11.1358 58.1668 11.2828C58.2038 11.3931 58.2407 11.5768 58.2777 11.7606C58.3146 11.9444 58.3146 12.1649 58.3516 12.4221C58.3516 12.7162 58.3885 13.047 58.3885 13.4145L56.3562 13.782L55.5432 13.929C55.1367 14.0025 54.7672 14.0761 54.5085 14.1496C54.2129 14.2231 53.9542 14.2966 53.7325 14.3701C53.5108 14.4436 53.326 14.5538 53.1412 14.6641C52.9565 14.7744 52.8087 14.8846 52.6608 14.9949C52.1435 15.4727 51.8848 16.1342 51.8848 16.9796C51.8848 17.8984 52.1435 18.6335 52.6978 19.148C53.2151 19.6626 53.9542 19.9566 54.878 19.9566C55.5432 19.9566 56.1714 19.8096 56.7257 19.5156C57.2799 19.2215 57.8342 18.7437 58.4255 18.0822C58.4994 18.3762 58.5733 18.6335 58.6102 18.7805C58.6842 18.9275 58.7581 19.0745 58.8689 19.2215C59.0167 19.4421 59.2015 19.5891 59.4232 19.6993C59.6449 19.8096 59.8667 19.8831 60.1253 19.8831C60.5318 19.8831 60.9014 19.7728 61.2709 19.5891C61.6404 19.4053 62.0839 19.0378 62.5643 18.5967L62.2317 18.0822ZM58.4255 13.9658V15.6564C58.4255 16.3915 58.3146 16.9796 58.0929 17.3471C57.8712 17.7146 57.5755 18.0087 57.1691 18.2292C56.7626 18.4497 56.3192 18.56 55.8758 18.56C55.2845 18.56 54.8041 18.3762 54.4716 18.0087C54.102 17.6411 53.9542 17.1633 53.9542 16.5753C53.9542 15.6197 54.3977 14.9949 55.2476 14.6641C55.5432 14.5538 55.9497 14.4436 56.4301 14.3333C56.9104 14.2598 57.5755 14.1128 58.4255 13.9658Z" fill="#36364A"/>
<path d="M69.767 18.2293C69.3975 18.3764 69.0649 18.4866 68.8432 18.5234C68.6214 18.5969 68.3997 18.5969 68.2149 18.5969C67.6606 18.5969 67.2542 18.4499 66.9955 18.1191C66.7368 17.7883 66.589 17.3105 66.589 16.6857V10.5479H69.6192V9.84952H66.589V5.80664H66.1086L64.7044 7.20328V9.81277H62.2285V10.5111H64.7044V17.384C64.7044 18.1558 64.8891 18.7806 65.2587 19.1482C65.6282 19.5525 66.1825 19.7362 66.8846 19.7362C67.365 19.7362 67.8454 19.6627 68.3258 19.479C68.8062 19.332 69.3605 19.0379 69.9887 18.6704L69.767 18.2293Z" fill="#36364A"/>
<path d="M82.6665 8.15868C83.036 8.15868 83.3687 8.04842 83.6274 7.79114C83.886 7.53387 83.9967 7.23984 83.9967 6.87231C83.9967 6.50477 83.886 6.21074 83.6274 5.95347C83.3687 5.6962 83.073 5.58594 82.7034 5.58594C82.3708 5.58594 82.0384 5.6962 81.7797 5.95347C81.521 6.21074 81.4102 6.50477 81.4102 6.83555C81.4102 7.20309 81.521 7.49712 81.7797 7.75439C82.0014 8.01166 82.3339 8.15868 82.6665 8.15868Z" fill="#36364A"/>
<path d="M103.469 17.1266C103.174 17.4574 102.878 17.7146 102.62 17.9352C102.361 18.1557 102.102 18.3027 101.844 18.4497C101.585 18.56 101.326 18.6702 101.03 18.707C100.735 18.7437 100.439 18.7805 100.07 18.7805C98.8505 18.7805 97.9267 18.3762 97.2985 17.5676C97.0398 17.2001 96.855 16.7958 96.7442 16.318C96.6333 15.8402 96.5963 15.2154 96.5963 14.4068H104.32C104.283 13.6718 104.208 13.047 104.135 12.6059C104.023 12.1281 103.876 11.7238 103.654 11.3195C103.284 10.658 102.73 10.1434 101.991 9.77591C101.252 9.40837 100.439 9.22461 99.5157 9.22461C98.7396 9.22461 98.0375 9.33487 97.4093 9.59214C96.7811 9.84942 96.2638 10.1802 95.8203 10.6212C95.3769 11.0623 95.0443 11.6136 94.8226 12.2751C94.6009 12.9367 94.4531 13.6718 94.4531 14.4436C94.4531 15.2522 94.5639 15.9872 94.8226 16.6488C95.0443 17.3104 95.4138 17.8617 95.8203 18.3395C96.2638 18.8172 96.7811 19.148 97.4093 19.4053C98.0375 19.6626 98.7396 19.7728 99.5157 19.7728C99.9961 19.7728 100.402 19.7361 100.809 19.6626C101.215 19.5891 101.585 19.4421 101.918 19.2583C102.287 19.0745 102.62 18.854 102.953 18.56C103.284 18.2659 103.654 17.9352 103.987 17.5309L103.469 17.1266ZM99.4048 9.88617C100.329 9.88617 100.994 10.1802 101.4 10.7682C101.806 11.3563 102.066 12.3119 102.176 13.7085H96.5594C96.6703 12.3486 96.9289 11.3563 97.3724 10.7682C97.8158 10.1802 98.5179 9.88617 99.4048 9.88617Z" fill="#36364A"/>
<path d="M48.9259 18.67C48.7411 18.5965 48.5934 18.4862 48.4826 18.3392C48.3717 18.1922 48.3346 17.9717 48.2977 17.7144C48.2607 17.4571 48.2607 17.0896 48.2607 16.6485V4.15234L44.4546 5.07117V5.76949C44.8242 5.76949 45.1567 5.80624 45.3785 5.87975C45.6371 5.95325 45.8219 6.06352 45.9328 6.21053C46.0806 6.35754 46.1545 6.57806 46.2284 6.87209C46.2653 7.16612 46.3022 7.53365 46.3022 7.97469V16.6485C46.3022 17.0896 46.3023 17.4204 46.2653 17.7144C46.2284 17.9717 46.1914 18.1922 46.0806 18.3392C45.9697 18.4862 45.8219 18.5965 45.6371 18.67C45.4524 18.7435 45.1936 18.7802 44.861 18.8538L44.3438 18.8905V19.5521H50.2563V18.8905L49.7389 18.8538C49.3693 18.817 49.1107 18.7435 48.9259 18.67Z" fill="#36364A"/>
<path d="M84.6586 18.6713C84.4738 18.5978 84.326 18.4875 84.2152 18.3405C84.1043 18.1935 84.0674 17.973 84.0304 17.7157C83.9934 17.4584 83.9934 17.0909 83.9934 16.6498V8.93164L80.1872 9.85047V10.5488C80.5568 10.5488 80.8894 10.5855 81.1111 10.659C81.3698 10.7325 81.5545 10.8428 81.7023 10.9898C81.8502 11.1368 81.9241 11.3573 81.998 11.6514C82.0349 11.9454 82.0719 12.3129 82.0719 12.754V16.6866C82.0719 17.1276 82.0719 17.4584 82.0349 17.7524C81.998 18.0097 81.961 18.2302 81.8502 18.3772C81.7393 18.5243 81.5915 18.6345 81.4067 18.708C81.2219 18.7815 80.9633 18.8183 80.6307 18.8918L80.1133 18.9285V19.5901H86.0259V18.9285L85.5085 18.8918C85.102 18.8183 84.8434 18.7448 84.6586 18.6713Z" fill="#36364A"/>
<path d="M92.0142 18.67C91.8295 18.5965 91.6816 18.4862 91.5708 18.3392C91.4599 18.1922 91.423 17.9717 91.386 17.7144C91.3491 17.4571 91.3491 17.0896 91.3491 16.6485V4.15234L87.5798 5.10793V5.80624C87.9493 5.80624 88.2819 5.84299 88.5036 5.9165C88.7623 5.99001 88.9471 6.10027 89.0949 6.24728C89.2427 6.3943 89.3166 6.61482 89.3905 6.90884C89.4275 7.20287 89.4644 7.57041 89.4644 8.01145V16.6853C89.4644 17.1263 89.4644 17.4571 89.4275 17.7511C89.3905 18.0084 89.3536 18.2289 89.2427 18.376C89.1319 18.523 88.984 18.6332 88.7993 18.7067C88.6145 18.7802 88.3558 18.817 88.0232 18.8905L87.5059 18.9273V19.5888H93.4185V18.9273L92.9011 18.8905C92.4946 18.817 92.2359 18.7435 92.0142 18.67Z" fill="#36364A"/>
<path d="M78.5638 5.07154C78.1204 4.77752 77.5661 4.59375 76.8639 4.59375C75.8292 4.59375 74.9793 4.92453 74.3511 5.58609C73.7229 6.24765 73.4273 7.16649 73.4273 8.30585C73.4273 8.41611 73.4273 9.00416 73.4273 9.18793C73.4273 9.40845 73.4642 9.59222 73.4642 9.81274H71.4688V10.511H73.4642V16.6489C73.4642 17.0899 73.4642 17.4207 73.4273 17.7147C73.3903 17.972 73.3535 18.1925 73.2426 18.3395C73.1317 18.4865 72.9838 18.5968 72.7991 18.6703C72.6143 18.7438 72.3556 18.7806 72.023 18.8541L71.5058 18.8908V19.5524H77.5659V18.8908L76.9008 18.8541C76.5682 18.7806 76.3095 18.7438 76.1248 18.6703C75.94 18.5968 75.7923 18.4865 75.6814 18.3395C75.5706 18.1925 75.5336 17.972 75.4967 17.7147C75.4597 17.4574 75.4596 17.0899 75.4596 16.6489V10.5478H78.1943V9.84949H75.4596C75.4227 9.77598 75.127 8.8939 74.9792 7.93831C74.9053 7.35026 74.9054 6.87246 75.0163 6.46817C75.1271 5.95363 75.3858 5.62284 75.7923 5.43908H75.8291C75.8291 5.43908 75.8291 5.43908 75.8661 5.43908C75.8661 5.43908 75.8662 5.43908 75.9031 5.43908H75.94C76.1248 5.36557 76.3095 5.32882 76.4943 5.32882C76.6791 5.32882 76.8639 5.36557 77.0487 5.43908C77.1965 5.51258 77.3074 5.58609 77.3074 5.6596C77.3074 5.69635 77.2703 5.76986 77.1964 5.84337C76.9747 6.06389 76.827 6.35791 76.827 6.68869C76.827 7.01948 76.9378 7.27675 77.1596 7.49727C77.3813 7.71779 77.6769 7.7913 78.0095 7.7913C78.379 7.7913 78.7116 7.64428 78.9703 7.38701C79.229 7.12974 79.3398 6.7622 79.3398 6.35791C79.229 5.76986 79.0072 5.36557 78.5638 5.07154Z" fill="#36364A"/>
<path d="M32.1133 5.10938V5.80769L32.8893 5.8812C33.4805 5.9547 33.887 6.10172 34.0718 6.32224C34.1457 6.39574 34.1826 6.46925 34.2196 6.54276C34.2566 6.61626 34.2935 6.68977 34.2935 6.83678C34.2935 6.94705 34.3305 7.09406 34.3305 7.27783C34.3305 7.46159 34.3305 7.71888 34.3305 8.0129V16.6499C34.3305 16.944 34.3305 17.2012 34.3305 17.385C34.3305 17.5688 34.2935 17.7158 34.2935 17.826C34.2935 17.9363 34.2566 18.0466 34.2196 18.1201C34.1826 18.1936 34.1457 18.2671 34.0718 18.3038C33.887 18.5611 33.4805 18.7081 32.8893 18.7449L32.1133 18.8184V19.5167H39.0234V18.8184L38.0257 18.7449C37.4345 18.7081 37.065 18.5611 36.8433 18.3038C36.7694 18.2303 36.7324 18.1936 36.7324 18.1201C36.6955 18.0466 36.6955 17.9363 36.6585 17.826C36.6216 17.7158 36.6216 17.5688 36.6216 17.385C36.6216 17.2012 36.6216 16.9807 36.6216 16.6499V13.3054H38.5061C38.7278 13.3054 38.9126 13.3421 39.0604 13.3789C39.2452 13.4156 39.4299 13.4891 39.5777 13.5994C39.7256 13.7097 39.8364 13.8567 39.9473 14.0772C40.0581 14.261 40.169 14.5182 40.2429 14.8123L40.4277 15.4003H41.2776V10.2916H40.4277L40.2799 10.8796C40.169 11.2104 40.0581 11.4677 39.9842 11.6515C39.8734 11.872 39.7625 12.019 39.6147 12.1293C39.4669 12.2395 39.3191 12.3498 39.1343 12.3865C39.0234 12.4233 38.9126 12.4233 38.7278 12.46H36.5846V6.02821H38.9495C39.6517 6.02821 40.2429 6.06496 40.6864 6.13847C41.1298 6.21198 41.4993 6.35899 41.758 6.57951C42.0167 6.80003 42.2014 7.09406 42.2753 7.46159C42.3862 7.82912 42.4232 8.34368 42.4601 8.93173H43.31V5.10938H32.1133Z" fill="#36364A"/>
</g>
</g>
</g>
</g>
<defs>
<clipPath id="clip0_2247_460">
<rect width="105" height="24" fill="white"/>
</clipPath>
<clipPath id="clip1_2247_460">
<rect width="105" height="24" fill="white"/>
</clipPath>
<clipPath id="clip2_2247_460">
<rect width="105" height="24" fill="white"/>
</clipPath>
</defs>
</svg>
