<svg width="79" height="79" viewBox="0 0 79 79" fill="none" xmlns="http://www.w3.org/2000/svg">
<rect opacity="0.1" width="79" height="79" rx="15" fill="#161C2D"/>
<path d="M45.6291 42.2168L56.2812 52.8689" stroke="black" stroke-width="4"/>
<path d="M42.1604 45.6855L52.8125 56.3376" stroke="black" stroke-width="4"/>
<path d="M52.8127 56.3359C53.2727 56.7959 53.8965 57.0543 54.547 57.0543C55.1975 57.0543 55.8213 56.7959 56.2812 56.3359" stroke="black" stroke-width="4" stroke-linecap="round" stroke-linejoin="round"/>
<path d="M56.2816 52.8691C56.7416 53.3291 57 53.9529 57 54.6034C57 55.2539 56.7416 55.8777 56.2816 56.3377" stroke="black" stroke-width="4" stroke-linecap="round" stroke-linejoin="round"/>
<path d="M21.944 33.0368C21.944 34.4862 22.2294 35.9214 22.7841 37.2604C23.3387 38.5995 24.1517 39.8161 25.1766 40.841C26.2014 41.8659 27.4181 42.6788 28.7572 43.2335C30.0962 43.7881 31.5314 44.0736 32.9808 44.0736C34.4301 44.0736 35.8653 43.7881 37.2044 43.2335C38.5434 42.6788 39.7601 41.8659 40.785 40.841C41.8098 39.8161 42.6228 38.5995 43.1775 37.2604C43.7321 35.9214 44.0176 34.4862 44.0176 33.0368C44.0176 30.1097 42.8548 27.3024 40.785 25.2326C38.7152 23.1628 35.9079 22 32.9808 22C31.5314 22 30.0962 22.2855 28.7572 22.8401C27.4181 23.3948 26.2014 24.2077 25.1766 25.2326C24.1517 26.2575 23.3387 27.4742 22.7841 28.8132C22.2294 30.1522 21.944 31.5874 21.944 33.0368Z" stroke="black" stroke-width="4" stroke-linecap="round" stroke-linejoin="round"/>
<path d="M45.6289 42.2168L42.1604 45.6853" stroke="black" stroke-width="4" stroke-linecap="round" stroke-linejoin="round"/>
<path d="M43.8945 43.9511L40.7852 40.8418" stroke="black" stroke-width="4" stroke-linecap="round" stroke-linejoin="round"/>
<path d="M48.5898 45.1758L45.1213 48.6443" stroke="black" stroke-width="4" stroke-linecap="round" stroke-linejoin="round"/>
<path d="M26.8509 33.0371C26.8509 34.6633 27.4969 36.2229 28.6468 37.3728C29.7966 38.5227 31.3562 39.1687 32.9824 39.1687" stroke="black" stroke-width="4" stroke-linecap="round" stroke-linejoin="round"/>
</svg>
