<svg width="106" height="29" viewBox="0 0 106 29" fill="none" xmlns="http://www.w3.org/2000/svg">
<g clip-path="url(#clip0_2247_509)">
<g clip-path="url(#clip1_2247_509)">
<g clip-path="url(#clip2_2247_509)">
<path d="M48.2139 10.3479V12.5722C47.2534 11.0515 45.6296 10.0755 43.5941 10.0755C40.3693 10.0755 37.6934 12.6629 37.6934 16.022C37.6934 19.3811 40.3693 21.9685 43.5941 21.9685C45.6296 21.9685 47.2534 20.9926 48.2139 19.4719V21.2423C48.2139 23.5572 46.6359 25.0552 43.9828 25.0552C41.5129 25.0552 40.4607 24.1474 39.889 22.9898L38.5625 23.7388C39.4544 25.5091 41.3527 26.5078 43.9828 26.5078C46.9332 26.5078 49.7234 24.6921 49.7234 21.2423V10.3479H48.2139ZM43.7084 20.5159C41.1697 20.5159 39.2029 18.5414 39.2029 16.022C39.2029 13.5027 41.1697 11.5281 43.7084 11.5281C46.2471 11.5281 48.2139 13.5027 48.2139 16.022C48.2139 18.5414 46.2471 20.5159 43.7084 20.5159ZM58.2483 21.9685C61.5875 21.9685 64.2634 19.3811 64.2634 16.022C64.2634 12.6629 61.5875 10.0755 58.2483 10.0755C54.9092 10.0755 52.2333 12.6629 52.2333 16.022C52.2333 19.3811 54.9092 21.9685 58.2483 21.9685ZM58.2483 20.5159C55.7096 20.5159 53.7428 18.5414 53.7428 16.022C53.7428 13.5027 55.7096 11.5281 58.2483 11.5281C60.787 11.5281 62.7539 13.5027 62.7539 16.022C62.7539 18.5414 60.787 20.5159 58.2483 20.5159ZM72.1183 21.9685C75.4574 21.9685 78.1333 19.3811 78.1333 16.022C78.1333 12.6629 75.4574 10.0755 72.1183 10.0755C68.7791 10.0755 66.1032 12.6629 66.1032 16.022C66.1032 19.3811 68.7791 21.9685 72.1183 21.9685ZM72.1183 20.5159C69.5796 20.5159 67.6127 18.5414 67.6127 16.022C67.6127 13.5027 69.5796 11.5281 72.1183 11.5281C74.657 11.5281 76.6238 13.5027 76.6238 16.022C76.6238 18.5414 74.657 20.5159 72.1183 20.5159ZM90.4936 5.80859V12.5722C89.5329 11.0515 87.9091 10.0755 85.8736 10.0755C82.6488 10.0755 79.9732 12.6629 79.9732 16.022C79.9732 19.3811 82.6488 21.9685 85.8736 21.9685C87.9091 21.9685 89.5329 20.9926 90.4936 19.4719V21.6961H92.003V5.80859H90.4936ZM85.9879 20.5159C83.4493 20.5159 81.4826 18.5414 81.4826 16.022C81.4826 13.5027 83.4493 11.5281 85.9879 11.5281C88.5266 11.5281 90.4936 13.5027 90.4936 16.022C90.4936 18.5414 88.5266 20.5159 85.9879 20.5159ZM103.433 10.3479L99.7279 19.8577L95.4279 10.3479H93.8269L98.95 21.7643L98.6527 22.4678C98.0351 23.9431 97.006 24.9871 95.5194 24.8282V26.2354C97.5778 26.3943 99.2704 24.9191 100.139 22.7402L105.033 10.3479H103.433Z" fill="#36364A"/>
<path d="M16.0484 1.47539C16.0484 1.08556 15.7325 0.769531 15.3425 0.769531C14.9526 0.769531 14.6367 1.08556 14.6367 1.47539V5.71057C14.6367 6.10035 14.9526 6.41637 15.3425 6.41637C15.7325 6.41637 16.0484 6.10035 16.0484 5.71057V1.47539Z" fill="#36364A"/>
<path d="M5.06242 13.524C5.25977 13.1863 5.14264 12.7546 4.80087 12.5598L1.08765 10.4423C0.745851 10.2474 0.308814 10.3631 0.111483 10.7006C-0.085848 11.0383 0.031255 11.47 0.37304 11.6648L4.08626 13.7823C4.42803 13.9772 4.86505 13.8616 5.06242 13.524Z" fill="#36364A"/>
<path d="M24.7257 4.06033C24.9205 3.71848 24.8049 3.28154 24.4672 3.08409C24.1297 2.88683 23.698 3.00392 23.5031 3.34576L21.3856 7.05888C21.1908 7.40072 21.3065 7.8378 21.6441 8.0351C21.9816 8.23241 22.4133 8.11527 22.6082 7.77358L24.7257 4.06033Z" fill="#36364A"/>
<path d="M9.03947 8.0351C9.37718 7.8378 9.49272 7.40072 9.29794 7.05888L7.1805 3.34577C6.98557 3.00393 6.55393 2.88682 6.21637 3.0841C5.87866 3.28155 5.76311 3.71848 5.95791 4.06032L8.07534 7.77358C8.27027 8.11527 8.70191 8.23241 9.03947 8.0351Z" fill="#36364A"/>
<path d="M30.3126 11.6648C30.6543 11.47 30.7715 11.0383 30.5741 10.7006C30.3767 10.3631 29.9397 10.2474 29.5979 10.4423L25.8848 12.5598C25.543 12.7546 25.4258 13.1863 25.6232 13.524C25.8206 13.8616 26.2575 13.9772 26.5993 13.7823L30.3126 11.6648Z" fill="#36364A"/>
<path d="M21.9445 21.9408V27.771C21.9445 28.2083 21.6511 28.4998 21.2111 28.4998H9.47743C9.03736 28.4998 8.74402 28.2083 8.74402 27.771V21.9408H14.6109V28.4998H16.0777V21.9408H21.9445ZM14.6109 16.8394H8.01076C7.57069 16.8394 7.27734 17.131 7.27734 17.5682V19.7544C7.27734 20.1918 7.57069 20.4832 8.01076 20.4832H14.6109V16.8394ZM22.6777 16.8394H16.0777V20.4832H22.6777C23.1179 20.4832 23.4112 20.1918 23.4112 19.7544V17.5682C23.4112 17.131 23.1179 16.8394 22.6777 16.8394ZM20.5512 16.0378L20.6244 15.7463C20.9178 15.0175 20.8445 14.143 20.4044 13.4872C19.9645 12.8311 19.1577 12.4668 18.3511 12.4668C17.3243 12.4668 16.4443 13.0498 16.0777 13.9973L14.6109 17.5682H18.2778C19.2311 17.5682 20.1843 16.9851 20.5512 16.0378ZM17.471 14.5073C17.6176 14.143 17.9844 13.9243 18.3511 13.9243C18.6444 13.9243 18.9378 14.0701 19.1577 14.3616C19.3044 14.6531 19.3778 14.9446 19.2311 15.2361L19.1577 15.5276C19.011 15.8919 18.6444 16.1106 18.2778 16.1106H16.811L17.471 14.5073ZM14.6109 13.9973C14.2443 13.0498 13.2909 12.4668 12.3375 12.4668C11.5308 12.4668 10.724 12.8312 10.2841 13.56C9.84406 14.2158 9.77077 15.0175 10.0641 15.8192L10.1374 16.1106C10.5042 16.9851 11.4575 17.5682 12.4109 17.5682H16.0042L14.6109 13.9973ZM13.2175 14.5073L13.8776 16.1106H12.4109C12.0442 16.1106 11.6776 15.8919 11.5308 15.5276L11.3842 15.2361C11.3109 14.9446 11.3109 14.5803 11.5308 14.3616C11.6776 14.0701 11.9709 13.9243 12.3375 13.9243C12.7043 13.9243 13.0709 14.143 13.2175 14.5073Z" fill="#36364A"/>
</g>
</g>
</g>
<defs>
<clipPath id="clip0_2247_509">
<rect width="106" height="27.73" fill="white" transform="translate(0 0.769531)"/>
</clipPath>
<clipPath id="clip1_2247_509">
<rect width="106" height="27.73" fill="white" transform="translate(0 0.769531)"/>
</clipPath>
<clipPath id="clip2_2247_509">
<rect width="105.968" height="27.73" fill="white" transform="translate(0.015625 0.769531)"/>
</clipPath>
</defs>
</svg>
