<svg width="56" height="56" viewBox="0 0 56 56" fill="none" xmlns="http://www.w3.org/2000/svg">
<rect width="56" height="56" rx="8.4" fill="#DFF1E0"/>
<path fill-rule="evenodd" clip-rule="evenodd" d="M24.4563 35.5473C21.0228 32.9164 16.334 28.5706 16.334 24.4616C16.334 17.5969 22.7507 15.0338 28.0007 20.3351C33.2507 15.0338 39.6673 17.5969 39.6673 24.4616C39.6673 28.5706 34.9773 32.9164 31.545 35.5473C29.991 36.7373 29.214 37.3334 28.0007 37.3334C26.7873 37.3334 26.0103 36.7384 24.4563 35.5473ZM33.2507 21.2918C33.4827 21.2918 33.7053 21.384 33.8694 21.5481C34.0335 21.7122 34.1257 21.9347 34.1257 22.1668V23.6251H35.584C35.816 23.6251 36.0386 23.7173 36.2027 23.8814C36.3668 24.0455 36.459 24.268 36.459 24.5001C36.459 24.7322 36.3668 24.9547 36.2027 25.1188C36.0386 25.2829 35.816 25.3751 35.584 25.3751H34.1257V26.8334C34.1257 27.0655 34.0335 27.2881 33.8694 27.4522C33.7053 27.6163 33.4827 27.7084 33.2507 27.7084C33.0186 27.7084 32.796 27.6163 32.6319 27.4522C32.4678 27.2881 32.3757 27.0655 32.3757 26.8334V25.3751H30.9173C30.6853 25.3751 30.4627 25.2829 30.2986 25.1188C30.1345 24.9547 30.0423 24.7322 30.0423 24.5001C30.0423 24.268 30.1345 24.0455 30.2986 23.8814C30.4627 23.7173 30.6853 23.6251 30.9173 23.6251H32.3757V22.1668C32.3757 21.9347 32.4678 21.7122 32.6319 21.5481C32.796 21.384 33.0186 21.2918 33.2507 21.2918Z" fill="#4CAF50"/>
</svg>
