<svg width="119" height="28" viewBox="0 0 119 28" fill="none" xmlns="http://www.w3.org/2000/svg">
<g clip-path="url(#clip0_2247_450)">
<g clip-path="url(#clip1_2247_450)">
<path d="M41.5725 21.682V14.4232C41.5725 13.2971 41.3362 12.4783 40.8637 11.9671C40.3911 11.4556 39.6582 11.2 38.665 11.2C37.3296 11.2 36.352 11.5379 35.7322 12.2143C35.1122 12.8903 34.8024 13.9872 34.8024 15.504V21.682H33.7852V5.66016H34.8024V10.7571L34.7509 12.1886H34.8228C35.2406 11.5157 35.7681 11.0283 36.405 10.7264C37.042 10.4243 37.833 10.2731 38.7782 10.2731C41.3124 10.2731 42.5795 11.6357 42.5795 14.361V21.682H41.5725ZM55.4314 16.0701C55.4314 17.8961 54.9897 19.3225 54.1062 20.3487C53.2226 21.3752 52.0035 21.8883 50.4487 21.8883C49.4693 21.8883 48.6063 21.6516 47.86 21.1778C47.1134 20.7039 46.5415 20.0245 46.1442 19.1385C45.7469 18.2534 45.5485 17.2306 45.5485 16.0701C45.5485 14.2442 45.9901 12.8214 46.8737 11.8016C47.7571 10.7823 48.9695 10.2724 50.5105 10.2724C52.0445 10.2724 53.2483 10.7889 54.1216 11.8222C54.9947 12.8557 55.4314 14.2715 55.4314 16.0701ZM46.6167 16.0701C46.6167 17.6078 46.954 18.8077 47.6287 19.6692C48.3035 20.5307 49.257 20.9614 50.4899 20.9614C51.7225 20.9614 52.6764 20.5307 53.3511 19.6692C54.0256 18.8077 54.3628 17.6081 54.3628 16.0701C54.3628 14.5257 54.0222 13.3277 53.3408 12.4765C52.6592 11.6254 51.7022 11.1997 50.4693 11.1997C49.2364 11.1997 48.2862 11.6236 47.6184 12.4715C46.9505 13.3194 46.6167 14.5191 46.6167 16.0701ZM72.4749 21.682V14.3406C72.4749 13.249 72.2626 12.4522 71.8387 11.9515C71.4139 11.4503 70.7635 11.1997 69.8869 11.1997C68.743 11.1997 67.8977 11.5155 67.3491 12.147C66.801 12.7785 66.5272 13.7706 66.5272 15.1226V21.682H65.4896V14.0319C65.4896 12.1437 64.6265 11.2 62.9004 11.2C61.7295 11.2 60.8765 11.5414 60.3426 12.2246C59.8082 12.9075 59.5412 14.0007 59.5412 15.5042V21.6822H58.5243V10.4894H59.3668L59.5825 12.0238H59.6441C59.9529 11.4677 60.3911 11.0367 60.9591 10.7313C61.5271 10.4259 62.1548 10.2731 62.8393 10.2731C64.5994 10.2731 65.7293 10.9356 66.2298 12.2606H66.2713C66.6341 11.6222 67.1222 11.1314 67.7352 10.788C68.3483 10.4447 69.0455 10.2731 69.8262 10.2731C71.0448 10.2731 71.9593 10.5992 72.5687 11.2513C73.1782 11.9036 73.4832 12.9401 73.4832 14.361V21.682H72.4749ZM81.608 21.8883C79.9842 21.8883 78.7196 21.3871 77.812 20.3848C76.9044 19.3826 76.4508 17.9787 76.4508 16.1732C76.4508 14.3885 76.889 12.9582 77.7657 11.8845C78.6424 10.81 79.8238 10.2729 81.3097 10.2729C82.6242 10.2729 83.6619 10.733 84.4229 11.6527C85.1825 12.5726 85.5628 13.8219 85.5628 15.4008V16.2248H77.5187C77.5326 17.762 77.8902 18.9359 78.5922 19.7464C79.2937 20.5566 80.2988 20.9614 81.6075 20.9614C82.244 20.9614 82.8044 20.9171 83.2874 20.8277C83.7697 20.7384 84.3808 20.546 85.121 20.251V21.1778C84.491 21.4516 83.9087 21.6393 83.3745 21.7384C82.8409 21.8385 82.2518 21.8883 81.608 21.8883ZM81.3104 11.1793C80.2354 11.1793 79.3718 11.5346 78.7211 12.245C78.0704 12.9557 77.6904 13.98 77.5812 15.3189H84.4843C84.4843 14.0216 84.2036 13.0071 83.642 12.2759C83.0806 11.5449 82.303 11.1793 81.3104 11.1793ZM93.3607 10.2731C94.9219 10.2731 96.0987 10.7658 96.8898 11.7509C97.6808 12.7359 98.0762 14.1756 98.0762 16.0701C98.0762 17.9303 97.6604 19.365 96.8282 20.3749C95.996 21.3837 94.8264 21.8886 93.32 21.8886C92.5252 21.8886 91.8096 21.7237 91.1726 21.3944C90.5364 21.0647 90.0327 20.5979 89.6625 19.9937H89.57L89.2822 21.682H88.6454V5.66016H89.6625V9.68632C89.6625 10.2903 89.6487 10.8463 89.6212 11.3544L89.5899 12.2296H89.6618C90.0862 11.5568 90.5982 11.0627 91.1976 10.747C91.7975 10.4309 92.5186 10.2731 93.3607 10.2731ZM93.3403 11.2C92.0257 11.2 91.0841 11.5777 90.515 12.3332C89.947 13.0881 89.6622 14.3341 89.6622 16.0703V16.2462C89.6622 17.9344 89.9583 19.147 90.5508 19.881C91.1431 20.6156 92.066 20.9833 93.3198 20.9833C94.5386 20.9833 95.4565 20.5558 96.0726 19.7009C96.6893 18.8461 96.9974 17.6298 96.9974 16.0508C96.9976 12.8166 95.7784 11.2 93.3403 11.2ZM110.404 16.0701C110.404 17.8961 109.963 19.3225 109.079 20.3487C108.197 21.3752 106.977 21.8883 105.422 21.8883C104.442 21.8883 103.579 21.6516 102.833 21.1778C102.086 20.7039 101.514 20.0245 101.117 19.1385C100.719 18.2534 100.521 17.2306 100.521 16.0701C100.521 14.2442 100.963 12.8214 101.846 11.8016C102.729 10.7823 103.942 10.2724 105.483 10.2724C107.017 10.2724 108.221 10.7889 109.094 11.8222C109.968 12.8561 110.404 14.2715 110.404 16.0701ZM101.59 16.0701C101.59 17.6078 101.928 18.8077 102.602 19.6692C103.276 20.5307 104.23 20.9614 105.463 20.9614C106.696 20.9614 107.65 20.5307 108.324 19.6692C108.999 18.8077 109.336 17.6081 109.336 16.0701C109.336 14.5257 108.996 13.3277 108.314 12.4765C107.632 11.6254 106.675 11.1997 105.443 11.1997C104.209 11.1997 103.259 11.6236 102.592 12.4715C101.923 13.3194 101.59 14.5191 101.59 16.0701ZM116.445 20.9821C117.089 20.9821 117.651 20.9274 118.13 20.8174V21.6411C117.637 21.8059 117.068 21.8883 116.424 21.8883C115.439 21.8883 114.711 21.6239 114.242 21.0954C113.773 20.5668 113.538 19.7362 113.538 18.6036V11.375H111.884V10.7777L113.538 10.3144L114.052 7.78121H114.575V10.4894H117.852V11.375H114.575V18.4592C114.575 19.3175 114.726 19.9526 115.028 20.3651C115.329 20.7762 115.802 20.9821 116.445 20.9821Z" fill="#36364A"/>
<path fill-rule="evenodd" clip-rule="evenodd" d="M13.7418 0.00195312C6.15237 0.00195312 0 6.16868 0 13.7754C0 21.3821 6.15237 27.5486 13.7416 27.5486C21.3308 27.5486 27.4832 21.3823 27.4832 13.7754C27.4834 6.16868 21.3308 0.00195312 13.7418 0.00195312Z" fill="#36364A"/>
<path d="M13.7432 26.2309C6.89113 26.2309 1.31641 20.6431 1.31641 13.7756C1.31641 6.90784 6.89113 1.32031 13.7432 1.32031C20.5952 1.32031 26.17 6.90784 26.17 13.7756C26.1697 20.6431 20.595 26.2309 13.7432 26.2309Z" fill="#36364A"/>
<path d="M14.7882 13.6399C14.7882 14.5564 15.5305 15.2997 16.4461 15.2997C16.8856 15.3 17.3072 15.1254 17.6181 14.8141C17.9291 14.5027 18.1039 14.0804 18.1041 13.6399C18.104 13.1993 17.9292 12.7768 17.6182 12.4654C17.3073 12.1541 16.8857 11.9793 16.4461 11.9796C15.531 11.9796 14.7882 12.7229 14.7882 13.6399ZM9.4102 13.6399C9.4102 14.5564 10.1525 15.2997 11.0683 15.2997C11.9843 15.2997 12.7265 14.5564 12.7265 13.6399C12.7263 13.1993 12.5515 12.7768 12.2405 12.4654C11.9295 12.1541 11.5079 11.9793 11.0683 11.9796C10.1525 11.9796 9.4102 12.7229 9.4102 13.6399ZM11.2761 19.7618H9.46285C8.86865 19.7621 8.38671 19.2796 8.38632 18.684V16.8553H7.74595C7.42602 16.8553 7.16652 16.5956 7.16602 16.2749V13.9274C7.16608 13.7734 7.22721 13.6255 7.33597 13.5166C7.44472 13.4077 7.5922 13.3465 7.74595 13.3466H8.38587V11.044C8.38637 10.4487 8.86813 9.96625 9.46216 9.96644H13.4331V9.30713C12.6553 9.14925 12.0708 8.4622 12.0708 7.63746C12.071 7.1853 12.2504 6.75174 12.5696 6.43219C12.8888 6.11264 13.3215 5.93329 13.7726 5.93359C14.7126 5.93359 15.4746 6.69615 15.4746 7.63746C15.4746 8.48629 14.8547 9.18963 14.0437 9.31998V9.96644H18.027C18.6212 9.96605 19.1033 10.4485 19.1037 11.044V13.3466H19.7351C19.889 13.3463 20.0368 13.4073 20.1458 13.5163C20.2547 13.6252 20.316 13.7732 20.3161 13.9274V16.2749C20.3158 16.4291 20.2545 16.5769 20.1455 16.6857C20.0366 16.7946 19.889 16.8556 19.7351 16.8553H19.1037V18.684C19.1032 19.2796 18.6212 19.7619 18.027 19.7618H11.2761ZM10.4672 16.8344C10.1037 16.8344 9.8088 17.1357 9.8088 17.4951V17.5956C9.8088 17.9605 10.1046 18.2565 10.4672 18.2565H17.1971C17.5608 18.2565 17.8555 17.9552 17.8555 17.5956V17.4951C17.8553 17.1305 17.5607 16.8349 17.1971 16.8344H10.4672Z" fill="white"/>
</g>
</g>
<defs>
<clipPath id="clip0_2247_450">
<rect width="119" height="27.77" fill="white"/>
</clipPath>
<clipPath id="clip1_2247_450">
<rect width="119" height="27.7667" fill="white" transform="translate(0 0.00195312)"/>
</clipPath>
</defs>
</svg>
