<svg width="17" height="24" viewBox="0 0 17 24" fill="none" xmlns="http://www.w3.org/2000/svg">
<path d="M4.94331 5.74805H16.4504C16.4504 5.74805 9.01516 17.3535 6.5354 21.2219C6.30738 21.5799 5.61924 22.6538 5.61924 22.6538L0.464266 15.9013C-0.101722 15.1609 -0.154656 14.148 0.329895 13.3508L4.94331 5.74805Z" fill="#3A032D"/>
<path d="M10.7656 16.293L15.9084 23.8672H7.87052C7.1213 23.8672 6.6571 23.0496 7.048 22.4069L10.7656 16.293Z" fill="#3A032D"/>
<path d="M10.7567 4.74305C12.0678 4.74305 13.1306 3.68128 13.1306 2.37153C13.1306 1.06177 12.0678 0 10.7567 0C9.44564 0 8.38281 1.06177 8.38281 2.37153C8.38281 3.68128 9.44564 4.74305 10.7567 4.74305Z" fill="#3A032D"/>
</svg>
