<svg width="41" height="40" viewBox="0 0 41 40" fill="none" xmlns="http://www.w3.org/2000/svg">
<path d="M17.4255 24.622L17.4105 24.587C17.1852 24.5254 16.9617 24.457 16.7405 24.382L16.7238 24.3753C14.4214 23.5876 12.423 22.0996 11.0082 20.1197C9.59342 18.1398 8.83316 15.7671 8.83383 13.3336C8.83309 10.3472 9.97766 7.4741 12.0318 5.30625C14.086 3.1384 16.8932 1.84084 19.8754 1.68083C22.8576 1.52083 25.7876 2.51056 28.062 4.44618C30.3363 6.3818 31.7817 9.11589 32.1005 12.0853C32.1738 12.772 31.6072 13.3336 30.9172 13.3336C30.2272 13.3336 29.6755 12.7703 29.5838 12.087C29.3621 10.4741 28.715 8.94933 27.7089 7.66939C26.7027 6.38945 25.3739 5.4005 23.859 4.80419C22.3441 4.20787 20.6977 4.0257 19.0891 4.2764C17.4805 4.52709 15.9676 5.20161 14.706 6.23062C13.4444 7.25963 12.4795 8.60603 11.9106 10.1314C11.3417 11.6568 11.1892 13.3062 11.4688 14.9101C11.7484 16.5139 12.4501 18.0144 13.5016 19.2573C14.5532 20.5002 15.9168 21.4406 17.4522 21.982C17.7615 21.2829 18.3017 20.7113 18.9823 20.3631C19.6628 20.0149 20.4424 19.9112 21.1904 20.0694C21.9383 20.2277 22.6091 20.6382 23.0904 21.2321C23.5717 21.8261 23.8341 22.5675 23.8338 23.332C23.8346 24.1024 23.5685 24.8493 23.0807 25.4457C22.5929 26.0421 21.9136 26.4511 21.1583 26.6031C20.403 26.7551 19.6184 26.6409 18.9378 26.2797C18.2573 25.9185 17.7229 25.3327 17.4255 24.622ZM15.7172 26.672C13.7521 25.9662 11.9673 24.8348 10.4905 23.3586C9.57739 23.4649 8.73512 23.9028 8.12367 24.5892C7.51223 25.2756 7.17421 26.1627 7.17383 27.082V28.6153C7.17383 29.5686 7.47049 30.4986 8.02383 31.2753C10.5938 34.882 14.8005 36.667 20.5005 36.667C26.2005 36.667 30.4088 34.8803 32.9838 31.2753C33.5397 30.4979 33.8387 29.5661 33.8388 28.6103V27.0803C33.8388 26.0863 33.4442 25.133 32.7417 24.4298C32.0391 23.7267 31.0861 23.3312 30.0922 23.3303H26.3338C26.3341 24.5717 25.9383 25.7809 25.204 26.7818C24.4697 27.7828 23.4353 28.5234 22.2511 28.896C21.0669 29.2685 19.7947 29.2536 18.6196 28.8533C17.4445 28.453 16.4277 27.6899 15.7172 26.672ZM27.1672 13.3336C27.1672 12.3594 26.9536 11.3969 26.5416 10.5141C26.1295 9.63119 25.5289 8.84938 24.7822 8.22364C24.0889 7.64376 23.2851 7.21088 22.4194 6.95131C21.5537 6.69175 20.6442 6.61091 19.7463 6.71372C18.8484 6.81653 17.9808 7.10084 17.1961 7.54937C16.4115 7.9979 15.7263 8.60128 15.1821 9.32284C14.6379 10.0444 14.2461 10.8691 14.0305 11.7468C13.8149 12.6245 13.78 13.5368 13.9279 14.4284C14.0759 15.32 14.4036 16.1722 14.8911 16.9332C15.3786 17.6942 16.0157 18.3482 16.7638 18.8553C17.8124 17.9801 19.1347 17.5006 20.5005 17.5003C21.9222 17.5003 23.2255 18.0086 24.2388 18.8553C25.141 18.2443 25.8797 17.4215 26.3902 16.4589C26.9007 15.4963 27.1674 14.4232 27.1672 13.3336Z" fill="#6B0653"/>
</svg>
