<svg width="130" height="21" viewBox="0 0 130 21" fill="none" xmlns="http://www.w3.org/2000/svg">
<g clip-path="url(#clip0_2247_485)">
<g clip-path="url(#clip1_2247_485)">
<g clip-path="url(#clip2_2247_485)">
<path d="M25.5625 10.8438C25.9557 13.9063 26.3205 16.7818 26.6993 19.6543C26.7442 19.9984 26.6724 20.1198 26.2842 20.1391C23.9464 20.2544 23.9478 20.2635 23.1027 18.1503C22.7509 17.271 22.408 16.3882 22.0332 15.5176C21.9507 15.3745 21.9203 15.2084 21.9469 15.0463C21.9735 14.8841 22.0555 14.7355 22.1795 14.6247C23.2854 13.4255 24.3624 12.1938 25.5625 10.8438Z" fill="#36364A"/>
<path d="M11.8207 13.4102C12.1555 15.0961 12.4858 16.6807 12.7767 18.2723C12.8664 18.765 13.2703 19.3909 12.9247 19.724C12.6268 20.0103 11.9652 19.6053 11.4567 19.6237C10.1059 19.6736 9.47709 19.0538 9.25763 17.7524C9.12882 16.9884 9.07182 16.4593 9.71674 15.8676C10.4695 15.0919 11.1722 14.2712 11.8207 13.4102Z" fill="#36364A"/>
<path d="M15.6351 16.4864C15.6351 15.5396 15.6203 14.5928 15.6423 13.6464C15.6508 13.2747 15.545 13.1493 15.1405 13.1362C12.3819 13.047 9.62395 12.9389 6.86655 12.8118C6.43346 12.7921 6.26247 12.9122 6.17046 13.3304C5.74501 15.2669 5.2621 17.1921 4.84651 19.1309C4.72982 19.6753 4.5171 19.876 3.93412 19.8142C3.28725 19.7487 2.63605 19.7341 1.98678 19.7704C1.49759 19.7945 1.40335 19.5951 1.41052 19.1791C1.45271 16.2712 1.5151 13.3632 1.48638 10.4562C1.48108 9.56163 1.78695 8.69182 2.35391 7.98922C3.87981 5.91808 5.34962 3.80969 6.82795 1.70655C6.90769 1.56254 7.03318 1.44773 7.18552 1.37942C7.33785 1.31112 7.50879 1.29301 7.67258 1.32782C13.1847 1.90379 18.6989 2.4618 24.2152 3.00183C24.5602 3.04222 24.8897 3.16524 25.1743 3.35995C28.4568 5.44336 31.7334 7.53423 35.0325 9.59222C35.5262 9.89906 35.5397 10.0744 35.0652 10.3519C34.9631 10.4057 34.8719 10.4773 34.796 10.5631C33.8459 11.762 32.7315 11.7081 31.3852 11.1768C29.7578 10.5364 28.0416 10.1116 26.373 9.56724C26.2142 9.50436 26.042 9.48055 25.8716 9.4979C25.7011 9.51525 25.5376 9.57323 25.3955 9.66674C23.8606 10.5978 22.3187 11.5174 20.7698 12.4256C20.6303 12.4986 20.5111 12.6038 20.4227 12.7319C20.3342 12.8601 20.2791 13.0075 20.2622 13.1612C19.9224 15.16 19.5338 17.15 19.2214 19.1541C19.1317 19.7283 18.9221 19.9102 18.3378 19.8703C17.5957 19.8275 16.8517 19.8263 16.1095 19.8668C15.6693 19.8861 15.5565 19.7353 15.5709 19.3255C15.5997 18.3791 15.5799 17.4314 15.5799 16.4846L15.6351 16.4864Z" fill="#36364A"/>
<path d="M48.6017 10.7517C49.7123 9.11537 51.3177 8.64292 53.1721 8.88726C54.2014 8.97026 55.1594 9.43436 55.8499 10.1846C56.5403 10.9348 56.911 11.9144 56.8862 12.9228C56.9574 15.0068 56.8925 17.0953 56.9236 19.1813C56.9314 19.7161 56.6262 19.6831 56.2614 19.6882C55.8617 19.6917 55.5425 19.7115 55.5534 19.1392C55.5877 17.365 55.5705 15.5907 55.5617 13.8191C55.5551 13.4551 55.5263 13.0918 55.4755 12.7312C55.147 10.1687 52.8431 9.7404 51.1158 10.3082C50.0258 10.663 49.3387 11.7381 49.3241 13.1063C49.3034 15.036 49.3045 16.9659 49.3273 18.8959C49.3335 19.4236 49.2567 19.7069 48.597 19.7069C47.9264 19.7069 47.8658 19.3957 47.8704 18.8837C47.887 17.0588 47.9068 15.2339 47.8704 13.409C47.8185 10.9702 46.0839 9.64561 43.7764 10.2367C43.2146 10.3763 42.7137 10.6888 42.348 11.128C41.9822 11.5672 41.7709 12.1098 41.7454 12.6754C41.5905 14.7554 41.5637 16.8426 41.6651 18.9258C41.6738 19.7551 41.2457 19.7216 40.6789 19.6862C40.4334 19.6715 40.2637 19.6096 40.272 19.3278C40.3353 17.0365 40.0991 14.7366 40.3955 12.4539C40.6239 10.6944 41.5928 9.418 43.4151 9.00689C45.3625 8.56485 47.1588 8.84215 48.4408 10.5581C48.4812 10.6103 48.5306 10.665 48.6017 10.7517Z" fill="#36364A"/>
<path d="M119.412 10.6996C120.102 9.89243 121.024 9.30478 122.058 9.0119C123.091 8.71902 124.191 8.73426 125.217 9.05566C127.846 9.74913 129.181 11.9523 128.973 15.1002C128.917 16.1357 128.544 17.1308 127.903 17.9576C127.263 18.7844 126.383 19.405 125.378 19.7396C124.333 20.0894 123.206 20.1345 122.135 19.8694C121.064 19.6043 120.095 19.0405 119.347 18.2467C118.468 17.2477 117.994 15.9692 118.013 14.6521C117.989 10.4832 118.007 6.31372 118.001 2.1448C118.001 1.67843 118.055 1.32663 118.672 1.31294C119.313 1.29875 119.421 1.62825 119.419 2.15088C119.405 4.93794 119.412 7.72499 119.412 10.6996ZM119.412 14.4179C119.334 17.8452 122.247 19.4303 125.168 18.4155C126.977 17.7874 127.962 15.7075 127.58 13.549C127.296 11.9411 126.526 10.7032 124.813 10.254C121.723 9.43737 119.407 11.2375 119.412 14.4179Z" fill="#36364A"/>
<path d="M113.082 10.7252C113.082 7.73134 113.086 4.9225 113.076 2.11414C113.076 1.63612 113.143 1.30307 113.762 1.31067C114.273 1.31879 114.473 1.49063 114.471 2.00465C114.454 6.25722 114.5 10.5098 114.44 14.7613C114.395 17.9265 112.045 20.0404 108.786 19.9912C105.709 19.9451 103.476 17.6756 103.461 14.5778C103.446 11.6884 104.824 9.63585 107.311 9.03464C109.453 8.51504 111.411 8.86633 113.082 10.7252ZM108.943 18.6971C111.47 18.7006 113.076 17.0425 113.082 14.4217C113.087 11.7304 111.503 10.0718 108.935 10.0784C106.412 10.085 104.835 11.7401 104.828 14.3918C104.819 17.0085 106.428 18.6936 108.943 18.6971Z" fill="#36364A"/>
<path d="M87.4536 10.9377C87.4536 7.98747 87.462 5.13249 87.4464 2.27752C87.4439 1.77668 87.5455 1.48013 88.146 1.49889C88.622 1.51359 88.8088 1.68543 88.8072 2.15789C88.7912 6.48395 88.8482 10.811 88.7667 15.135C88.7107 18.1147 86.3503 20.1926 83.2653 20.1784C82.561 20.1971 81.86 20.0791 81.2029 19.8311C80.5458 19.5832 79.9457 19.2102 79.4373 18.7339C78.929 18.2576 78.5225 17.6875 78.2415 17.0565C77.9605 16.4256 77.8106 15.7464 77.8005 15.0585C77.6878 12.2887 78.8354 10.1981 81.0578 9.42104C83.4411 8.58766 85.6288 8.90449 87.4536 10.9377ZM83.3285 18.8837C85.8256 18.8721 87.4806 17.1364 87.4521 14.5653C87.42 11.8902 85.8022 10.2417 83.232 10.2646C80.7293 10.2869 79.1479 11.9805 79.164 14.621C79.18 17.2286 80.8082 18.8954 83.3285 18.8837Z" fill="#36364A"/>
<path d="M96.3764 19.9966C94.8894 19.9859 93.5612 19.622 92.6711 18.3562C92.4381 18.0252 92.1334 17.6288 92.666 17.2851C93.1159 16.9946 93.4158 17.1756 93.7367 17.5679C94.3309 18.2146 95.1392 18.6364 96.02 18.7594C96.9007 18.8823 97.7976 18.6987 98.5537 18.2406C98.8058 18.091 99.0095 17.8746 99.1411 17.6166C99.2726 17.3586 99.3266 17.0695 99.2969 16.7827C99.2795 16.5067 99.1755 16.2426 98.999 16.0263C98.8226 15.81 98.5823 15.652 98.3108 15.5737C97.2957 15.2453 96.2591 14.9841 95.208 14.792C94.7664 14.6901 94.3342 14.5521 93.9162 14.3794C93.5343 14.2196 93.1951 13.9762 92.9247 13.6681C92.6544 13.36 92.4599 12.9954 92.3567 12.6023C92.2534 12.2093 92.2439 11.7983 92.3289 11.4011C92.4139 11.0039 92.5912 10.631 92.8471 10.3113C94.184 8.46867 98.8515 8.13765 100.257 10.5283C100.439 10.838 100.845 11.1838 100.316 11.5274C99.8651 11.821 99.5377 11.7439 99.1889 11.2654C98.2236 9.93316 95.6186 9.6645 94.3367 10.7113C94.1023 10.8669 93.9185 11.0846 93.8068 11.3389C93.6951 11.5931 93.6601 11.8733 93.7061 12.1463C93.752 12.4193 93.8769 12.6738 94.0661 12.8798C94.2552 13.0858 94.5008 13.2346 94.7737 13.3088C95.6285 13.5972 96.5326 13.7483 97.4155 13.9576C98.0423 14.0911 98.6473 14.3086 99.2133 14.604C99.6644 14.8246 100.044 15.163 100.31 15.5816C100.576 16.0003 100.718 16.4827 100.72 16.9755C100.722 17.4682 100.585 17.9519 100.323 18.3729C100.061 18.7939 99.6846 19.1357 99.2356 19.3604C98.3611 19.8264 97.3713 20.0466 96.3764 19.9966Z" fill="#36364A"/>
<path d="M75.329 16.2158C75.329 17.1541 75.303 18.0914 75.3394 19.0307C75.3592 19.5376 75.2034 19.7145 74.6647 19.6988C74.1732 19.6841 73.9381 19.5934 73.9453 19.0469C73.9754 17.3006 73.9708 15.5537 73.9531 13.8074C73.9251 11.143 71.9383 9.62884 69.282 10.23C68.5675 10.3791 67.9267 10.7618 67.4651 11.3148C67.0035 11.8678 66.749 12.5581 66.7435 13.2716C66.6645 15.1472 66.6879 17.0228 66.7009 18.8984C66.7045 19.4256 66.6309 19.6988 65.9743 19.7064C65.2783 19.7145 65.2622 19.3774 65.2788 18.8837C65.3468 16.9067 65.1371 14.9211 65.3924 12.9497C65.7392 10.2696 67.6694 8.76252 70.5972 8.8345C71.2015 8.82322 71.8021 8.92837 72.3648 9.14396C72.9274 9.35954 73.4409 9.68133 73.8762 10.0909C74.3114 10.5005 74.6597 10.9899 74.9012 11.531C75.1427 12.0722 75.2725 12.6545 75.2834 13.2447C75.3509 14.2307 75.2943 15.2217 75.2943 16.2142L75.329 16.2158Z" fill="#36364A"/>
<path d="M61.7837 14.4442C61.7837 15.9543 61.763 17.4644 61.7951 18.974C61.8065 19.5038 61.668 19.6913 61.0871 19.6979C60.4571 19.705 60.4078 19.4237 60.4124 18.9375C60.428 15.97 60.4234 13.002 60.4171 10.034C60.4171 9.56153 60.4025 9.15042 61.0919 9.13521C61.7811 9.12 61.7972 9.5012 61.7925 9.99241C61.7748 11.4767 61.7837 12.9604 61.7837 14.4442Z" fill="#36364A"/>
<path d="M59.9375 5.8522C59.9419 5.55153 60.0665 5.26445 60.2848 5.05234C60.503 4.84024 60.7975 4.71995 61.1054 4.7172C61.2646 4.71299 61.423 4.74168 61.5702 4.8014C61.7173 4.86112 61.8499 4.95052 61.9592 5.06375C62.0685 5.17697 62.1521 5.31147 62.2045 5.45844C62.2569 5.60541 62.2769 5.76152 62.2633 5.91658C62.2476 6.21305 62.1138 6.49179 61.8905 6.69316C61.6672 6.89454 61.372 7.00257 61.0682 6.99416C60.7644 6.98575 60.476 6.86156 60.2647 6.64815C60.0534 6.43475 59.936 6.14906 59.9375 5.8522Z" fill="#36364A"/>
</g>
</g>
</g>
<defs>
<clipPath id="clip0_2247_485">
<rect width="130" height="20" fill="white" transform="translate(0 0.769531)"/>
</clipPath>
<clipPath id="clip1_2247_485">
<rect width="130" height="20" fill="white" transform="translate(0 0.769531)"/>
</clipPath>
<clipPath id="clip2_2247_485">
<rect width="130" height="20" fill="white" transform="translate(0 0.769531)"/>
</clipPath>
</defs>
</svg>
