<svg width="79" height="79" viewBox="0 0 79 79" fill="none" xmlns="http://www.w3.org/2000/svg">
<rect opacity="0.1" width="79" height="79" rx="15" fill="#4CAF50"/>
<g clip-path="url(#clip0_2024_14342)">
<path fill-rule="evenodd" clip-rule="evenodd" d="M22 24.7286C22 22.6071 23.7897 21 25.8571 21H54.1429C56.2103 21 58 22.6071 58 24.7286V39.1286C58 41.25 56.2103 42.8571 54.1429 42.8571H25.8571C23.7897 42.8571 22 41.25 22 39.1286V24.7286ZM45.1429 31.9286C45.1429 33.2925 44.601 34.6006 43.6365 35.5651C42.6721 36.5296 41.364 37.0714 40 37.0714C38.636 37.0714 37.3279 36.5296 36.3635 35.5651C35.399 34.6006 34.8571 33.2925 34.8571 31.9286C34.8571 30.5646 35.399 29.2565 36.3635 28.292C37.3279 27.3275 38.636 26.7857 40 26.7857C41.364 26.7857 42.6721 27.3275 43.6365 28.292C44.601 29.2565 45.1429 30.5646 45.1429 31.9286ZM31 32.5714C31 32.3182 30.9501 32.0674 30.8532 31.8334C30.7563 31.5994 30.6142 31.3868 30.4351 31.2077C30.2561 31.0286 30.0434 30.8866 29.8095 30.7897C29.5755 30.6927 29.3247 30.6429 29.0714 30.6429C28.8182 30.6429 28.5674 30.6927 28.3334 30.7897C28.0994 30.8866 27.8868 31.0286 27.7077 31.2077C27.5286 31.3868 27.3866 31.5994 27.2897 31.8334C27.1927 32.0674 27.1429 32.3182 27.1429 32.5714C27.1429 33.0829 27.346 33.5735 27.7077 33.9351C28.0694 34.2968 28.5599 34.5 29.0714 34.5C29.5829 34.5 30.0735 34.2968 30.4351 33.9351C30.7968 33.5735 31 33.0829 31 32.5714ZM50.9286 30.6429C51.4401 30.6429 51.9306 30.846 52.2923 31.2077C52.654 31.5694 52.8571 32.0599 52.8571 32.5714C52.8571 33.0829 52.654 33.5735 52.2923 33.9351C51.9306 34.2968 51.4401 34.5 50.9286 34.5C50.4171 34.5 49.9265 34.2968 49.5649 33.9351C49.2032 33.5735 49 33.0829 49 32.5714C49 32.0599 49.2032 31.5694 49.5649 31.2077C49.9265 30.846 50.4171 30.6429 50.9286 30.6429ZM35.1786 48C35.1786 47.5738 35.0092 47.165 34.7079 46.8636C34.4065 46.5622 33.9977 46.3929 33.5714 46.3929C33.1452 46.3929 32.7364 46.5622 32.435 46.8636C32.1336 47.165 31.9643 47.5738 31.9643 48V53.1429C31.9643 53.5691 32.1336 53.9779 32.435 54.2793C32.7364 54.5807 33.1452 54.75 33.5714 54.75C33.9977 54.75 34.4065 54.5807 34.7079 54.2793C35.0092 53.9779 35.1786 53.5691 35.1786 53.1429V48ZM46.4286 46.3929C47.3157 46.3929 48.0357 47.1129 48.0357 48V53.1429C48.0357 53.3539 47.9941 53.5629 47.9134 53.7579C47.8326 53.9529 47.7142 54.13 47.565 54.2793C47.4158 54.4285 47.2386 54.5469 47.0436 54.6277C46.8486 54.7084 46.6396 54.75 46.4286 54.75C46.2175 54.75 46.0085 54.7084 45.8135 54.6277C45.6186 54.5469 45.4414 54.4285 45.2921 54.2793C45.1429 54.13 45.0245 53.9529 44.9438 53.7579C44.863 53.5629 44.8214 53.3539 44.8214 53.1429V48C44.8214 47.1129 45.5414 46.3929 46.4286 46.3929ZM40 48.3214C40.8871 48.3214 41.6071 49.0414 41.6071 49.9286V55.0714C41.6071 55.4977 41.4378 55.9065 41.1364 56.2079C40.835 56.5092 40.4262 56.6786 40 56.6786C39.5738 56.6786 39.165 56.5092 38.8636 56.2079C38.5622 55.9065 38.3929 55.4977 38.3929 55.0714V49.9286C38.3929 49.0414 39.1129 48.3214 40 48.3214Z" fill="#4CAF50"/>
</g>
<defs>
<clipPath id="clip0_2024_14342">
<rect width="36" height="36" fill="white" transform="translate(22 21)"/>
</clipPath>
</defs>
</svg>
