<svg width="68" height="24" viewBox="0 0 68 24" fill="none" xmlns="http://www.w3.org/2000/svg">
<g clip-path="url(#clip0_2247_410)">
<path d="M23.0772 23.4248C22.7518 23.4248 22.4996 23.3353 22.3206 23.1563C22.1579 22.961 22.0765 22.7007 22.0765 22.3753V6.90136C22.0765 6.55967 22.1579 6.30746 22.3206 6.14475C22.4996 5.96577 22.7518 5.87628 23.0772 5.87628C23.4026 5.87628 23.6467 5.96577 23.8094 6.14475C23.9884 6.30746 24.0779 6.55967 24.0779 6.90136V13.8573H24.1267L32.0833 6.43763C32.2785 6.24238 32.4738 6.10407 32.6691 6.02272C32.8643 5.92509 33.0758 5.87628 33.3036 5.87628C33.6128 5.87628 33.8324 5.9495 33.9626 6.09594C34.1091 6.24238 34.166 6.42136 34.1335 6.63289C34.1009 6.84441 33.987 7.0478 33.7918 7.24306L25.4691 14.9556L25.4935 13.8817L34.1823 21.9115C34.4263 22.1393 34.5565 22.3753 34.5728 22.6193C34.5891 22.8471 34.5158 23.0424 34.3531 23.2051C34.2067 23.3515 33.9789 23.4248 33.6697 23.4248C33.4257 23.4248 33.2141 23.3678 33.0352 23.2539C32.8724 23.1563 32.6853 23.0017 32.4738 22.7902L24.1267 15.1509H24.0779V22.3753C24.0779 22.7007 23.9965 22.961 23.8338 23.1563C23.6711 23.3353 23.4189 23.4248 23.0772 23.4248ZM40.9605 23.4736C39.789 23.4736 38.8941 23.1156 38.2758 22.3997C37.6574 21.6837 37.3483 20.6587 37.3483 19.3244V6.87696C37.3483 6.55153 37.4297 6.30746 37.5924 6.14475C37.7551 5.96577 37.9991 5.87628 38.3246 5.87628C38.6337 5.87628 38.8778 5.96577 39.0568 6.14475C39.2358 6.30746 39.3252 6.55153 39.3252 6.87696V19.178C39.3252 20.0566 39.4961 20.7156 39.8378 21.1549C40.1958 21.578 40.7164 21.7895 41.3998 21.7895C41.5463 21.7895 41.6764 21.7814 41.7903 21.7651C41.9042 21.7488 42.0181 21.7407 42.132 21.7407C42.311 21.7244 42.433 21.7651 42.4981 21.8627C42.5795 21.9603 42.6202 22.1556 42.6202 22.4485C42.6202 22.7414 42.5551 22.961 42.4249 23.1075C42.2947 23.2539 42.0832 23.3515 41.7903 23.4003C41.6602 23.4166 41.5219 23.4329 41.3754 23.4492C41.229 23.4654 41.0907 23.4736 40.9605 23.4736ZM48.3045 23.4736C47.4909 23.4736 46.7587 23.319 46.1079 23.0098C45.4733 22.6844 44.9689 22.2451 44.5946 21.6919C44.2204 21.1387 44.0333 20.5203 44.0333 19.837C44.0333 18.9583 44.2529 18.2668 44.6923 17.7624C45.1478 17.258 45.8882 16.9 46.9133 16.6885C47.9546 16.477 49.3702 16.3712 51.1601 16.3712H52.2584V17.6648H51.1845C49.8665 17.6648 48.8251 17.7298 48.0604 17.86C47.3119 17.9739 46.7831 18.1773 46.474 18.4702C46.1811 18.7631 46.0346 19.178 46.0346 19.7149C46.0346 20.382 46.2624 20.9271 46.718 21.3502C47.1899 21.7732 47.8245 21.9848 48.6217 21.9848C49.2726 21.9848 49.8421 21.8302 50.3302 21.521C50.8346 21.2119 51.2251 20.7888 51.5017 20.2519C51.7946 19.7149 51.9411 19.0966 51.9411 18.397V15.6146C51.9411 14.6058 51.7377 13.8817 51.3309 13.4424C50.9241 12.9868 50.257 12.759 49.3295 12.759C48.7601 12.759 48.1906 12.8322 47.6211 12.9787C47.0516 13.1251 46.4495 13.361 45.815 13.6864C45.5872 13.8003 45.3919 13.841 45.2292 13.8085C45.0665 13.7597 44.9363 13.6702 44.8387 13.54C44.7411 13.4098 44.6841 13.2634 44.6678 13.1007C44.6516 12.9217 44.6841 12.7509 44.7655 12.5881C44.8631 12.4254 45.0095 12.2953 45.2048 12.1976C45.9207 11.8397 46.6285 11.5793 47.3282 11.4166C48.0278 11.2539 48.695 11.1725 49.3295 11.1725C50.3546 11.1725 51.2007 11.3434 51.8679 11.6851C52.535 12.0105 53.0312 12.5149 53.3567 13.1983C53.6821 13.8654 53.8448 14.7278 53.8448 15.7854V22.3997C53.8448 22.7251 53.7634 22.9773 53.6007 23.1563C53.4543 23.3353 53.2346 23.4248 52.9417 23.4248C52.6326 23.4248 52.3967 23.3353 52.234 23.1563C52.0712 22.9773 51.9899 22.7251 51.9899 22.3997V20.4959H52.2095C52.0794 21.1142 51.8272 21.6431 51.4529 22.0824C51.095 22.5217 50.6475 22.8634 50.1106 23.1075C49.5736 23.3515 48.9716 23.4736 48.3045 23.4736ZM58.4888 23.4248C58.1633 23.4248 57.9193 23.3353 57.7566 23.1563C57.5938 22.9773 57.5125 22.7251 57.5125 22.3997V6.87696C57.5125 6.55153 57.5938 6.30746 57.7566 6.14475C57.9193 5.96577 58.1633 5.87628 58.4888 5.87628C58.7979 5.87628 59.042 5.96577 59.221 6.14475C59.3999 6.30746 59.4894 6.55153 59.4894 6.87696V16.6641H59.5383L64.5416 11.8803C64.7694 11.6688 64.9647 11.5061 65.1274 11.3922C65.3064 11.2783 65.5423 11.2214 65.8352 11.2214C66.0955 11.2214 66.2989 11.2946 66.4454 11.441C66.5918 11.5712 66.6569 11.742 66.6406 11.9536C66.6406 12.1488 66.543 12.3603 66.3477 12.5881L61.0271 17.6403V16.5664L66.8115 22.0092C67.0393 22.237 67.1532 22.4566 67.1532 22.6681C67.1532 22.8797 67.0718 23.0587 66.9091 23.2051C66.7627 23.3515 66.5674 23.4248 66.3233 23.4248C66.0305 23.4248 65.7945 23.3678 65.6155 23.2539C65.4366 23.1237 65.2169 22.9366 64.9566 22.6926L59.5383 17.6892H59.4894V22.3997C59.4894 23.0831 59.1559 23.4248 58.4888 23.4248Z" fill="#3A032D"/>
<path d="M4.94331 5.74805H16.4504C16.4504 5.74805 9.01516 17.3535 6.5354 21.2219C6.30738 21.5799 5.61924 22.6538 5.61924 22.6538L0.464266 15.9013C-0.101722 15.1609 -0.154656 14.148 0.329895 13.3508L4.94331 5.74805Z" fill="#3A032D"/>
<path d="M10.7656 16.293L15.9084 23.8672H7.87052C7.1213 23.8672 6.6571 23.0496 7.048 22.4069L10.7656 16.293Z" fill="#3A032D"/>
<path d="M10.7567 4.74305C12.0678 4.74305 13.1306 3.68128 13.1306 2.37153C13.1306 1.06177 12.0678 0 10.7567 0C9.44564 0 8.38281 1.06177 8.38281 2.37153C8.38281 3.68128 9.44564 4.74305 10.7567 4.74305Z" fill="#3A032D"/>
</g>
<defs>
<clipPath id="clip0_2247_410">
<rect width="68" height="24" fill="white"/>
</clipPath>
</defs>
</svg>
