<svg width="36" height="36" viewBox="0 0 36 36" fill="none" xmlns="http://www.w3.org/2000/svg">
<path fill-rule="evenodd" clip-rule="evenodd" d="M18 36C27.9411 36 36 27.9411 36 18C36 8.0589 27.9411 0 18 0C8.0589 0 0 8.0589 0 18C0 27.9411 8.0589 36 18 36ZM18.0001 33C22.1536 33 25.9129 31.3118 28.6291 28.5841C26.7959 26.5381 23.1671 24.9999 18.0001 24.9999C12.8331 24.9999 9.2042 26.5381 7.37109 28.5842C10.0873 31.3118 13.8465 33 18.0001 33ZM24.0007 19C26.1436 14.6955 25.2864 6.99994 18.0007 7C10.7151 7.00005 9.8579 14.6955 12.0007 19C14.1435 23.3046 21.8578 23.3046 24.0007 19Z" fill="black"/>
</svg>
