<svg width="73" height="19" viewBox="0 0 73 19" fill="none" xmlns="http://www.w3.org/2000/svg">
<g clip-path="url(#clip0_2247_499)">
<g clip-path="url(#clip1_2247_499)">
<g clip-path="url(#clip2_2247_499)">
<path d="M0.919922 17.6445V1.89453H7.883C8.85634 1.89453 9.73981 2.11953 10.5334 2.56953C11.327 3.00453 11.9486 3.59703 12.3978 4.34703C12.8619 5.09703 13.0941 5.95203 13.0941 6.91203C13.0941 7.85703 12.8619 8.71953 12.3978 9.49953C11.9486 10.2645 11.327 10.872 10.5334 11.322C9.73981 11.772 8.85634 11.997 7.883 11.997H4.17684V17.6445H0.919922ZM9.83715 17.6445L5.839 10.5345L9.29808 9.97203L13.7455 17.667L9.83715 17.6445ZM4.17684 9.25203H7.72577C8.13008 9.25203 8.48197 9.16203 8.78146 8.98203C9.09592 8.78703 9.33551 8.52453 9.50023 8.19453C9.66494 7.84954 9.74731 7.46704 9.74731 7.04703C9.74731 6.59703 9.64997 6.20704 9.45531 5.87703C9.26064 5.54703 8.97612 5.29203 8.60177 5.11203C8.22741 4.91703 7.79315 4.81953 7.299 4.81953H4.17684V9.25203Z" fill="#36364A"/>
<path d="M20.2757 17.8702C18.9879 17.8702 17.8573 17.6077 16.8839 17.0827C15.9256 16.5576 15.1769 15.8376 14.6377 14.9227C14.1137 14.0077 13.8516 12.9576 13.8516 11.7727C13.8516 10.8427 14.0014 9.99516 14.3008 9.23016C14.6003 8.46516 15.0196 7.80517 15.5587 7.25016C16.0977 6.68017 16.7342 6.24517 17.468 5.94516C18.2166 5.63016 19.0253 5.47266 19.8938 5.47266C20.7025 5.47266 21.4511 5.62267 22.14 5.92266C22.8288 6.22267 23.4203 6.64266 23.9145 7.18266C24.4235 7.70767 24.8129 8.33767 25.0825 9.07266C25.352 9.79266 25.4717 10.5727 25.4418 11.4127L25.4194 12.4027H15.8732L15.3565 10.4452H22.7914L22.432 10.8502V10.3552C22.402 9.95016 22.2672 9.59016 22.0276 9.27516C21.8031 8.94517 21.5111 8.69016 21.1517 8.51016C20.7923 8.31517 20.3879 8.21766 19.9387 8.21766C19.2799 8.21766 18.7183 8.34517 18.254 8.60016C17.8048 8.85517 17.4605 9.23016 17.2208 9.72516C16.9813 10.2202 16.8614 10.8202 16.8614 11.5252C16.8614 12.2452 17.0112 12.8676 17.3108 13.3927C17.6252 13.9177 18.0594 14.3301 18.6135 14.6302C19.1825 14.9151 19.8488 15.0577 20.6125 15.0577C21.1366 15.0577 21.6159 14.9752 22.0501 14.8102C22.4843 14.6451 22.9485 14.3602 23.4428 13.9552L24.9701 16.0927C24.5359 16.4827 24.0566 16.8127 23.5326 17.0827C23.0085 17.3377 22.4694 17.5327 21.9153 17.6677C21.3613 17.8027 20.8148 17.8702 20.2757 17.8702Z" fill="#36364A"/>
<path d="M30.672 17.8691C29.5638 17.8691 28.5755 17.6891 27.7071 17.3291C26.8535 16.9541 26.1647 16.4441 25.6406 15.7991L27.6397 14.0891C28.0889 14.5841 28.598 14.9441 29.1671 15.1691C29.7361 15.3791 30.3051 15.4841 30.8741 15.4841C31.0987 15.4841 31.3009 15.4616 31.4806 15.4166C31.6752 15.3566 31.84 15.2816 31.9747 15.1916C32.1095 15.0866 32.2069 14.9666 32.2667 14.8316C32.3417 14.6816 32.3791 14.5241 32.3791 14.3591C32.3791 14.0291 32.2443 13.7741 31.9747 13.5941C31.825 13.5041 31.5929 13.4066 31.2784 13.3016C30.964 13.1816 30.5597 13.0541 30.0655 12.9191C29.3018 12.7241 28.6504 12.4991 28.1114 12.2441C27.5872 11.9741 27.168 11.6741 26.8535 11.3441C26.584 11.0291 26.3743 10.6916 26.2246 10.3316C26.0898 9.95664 26.0224 9.54414 26.0224 9.09414C26.0224 8.55414 26.1423 8.06664 26.3818 7.63164C26.6214 7.18164 26.9509 6.79914 27.3701 6.48414C27.8044 6.16914 28.2986 5.92914 28.8526 5.76414C29.4066 5.58414 29.9906 5.49414 30.6046 5.49414C31.2186 5.49414 31.8175 5.56914 32.4015 5.71914C32.9855 5.86915 33.5246 6.08664 34.0187 6.37164C34.5278 6.64164 34.9697 6.96414 35.344 7.33914L33.6369 9.22914C33.3674 8.97413 33.0604 8.74164 32.716 8.53164C32.3866 8.32165 32.0421 8.15664 31.6827 8.03664C31.3234 7.91665 31.0014 7.85664 30.7169 7.85664C30.4623 7.85664 30.2303 7.87914 30.0206 7.92414C29.826 7.96914 29.6612 8.04414 29.5264 8.14914C29.3917 8.23914 29.2869 8.35164 29.212 8.48664C29.1521 8.62164 29.1221 8.77163 29.1221 8.93664C29.1221 9.10164 29.1595 9.25914 29.2344 9.40914C29.3243 9.55915 29.4441 9.68664 29.5938 9.79164C29.7586 9.88164 29.9981 9.98665 30.3126 10.1066C30.642 10.2266 31.0838 10.3616 31.6378 10.5116C32.3566 10.7067 32.9631 10.9241 33.4572 11.1641C33.9663 11.4041 34.3706 11.6816 34.6701 11.9966C34.9247 12.2666 35.1118 12.5741 35.2317 12.9191C35.3515 13.2641 35.4114 13.6466 35.4114 14.0666C35.4114 14.8016 35.2017 15.4541 34.7824 16.0241C34.3781 16.5941 33.8166 17.0441 33.0978 17.3741C32.3791 17.7041 31.5704 17.8691 30.672 17.8691Z" fill="#36364A"/>
<path d="M42.2013 17.8702C40.9135 17.8702 39.783 17.6077 38.8096 17.0827C37.8513 16.5576 37.1026 15.8376 36.5635 14.9227C36.0393 14.0077 35.7773 12.9576 35.7773 11.7727C35.7773 10.8427 35.927 9.99516 36.2266 9.23016C36.5261 8.46516 36.9453 7.80517 37.4844 7.25016C38.0235 6.68017 38.6599 6.24517 39.3936 5.94516C40.1424 5.63016 40.951 5.47266 41.8195 5.47266C42.6281 5.47266 43.3769 5.62267 44.0656 5.92266C44.7544 6.22267 45.3459 6.64266 45.8401 7.18266C46.3492 7.70767 46.7386 8.33767 47.0081 9.07266C47.2776 9.79266 47.3975 10.5727 47.3675 11.4127L47.345 12.4027H37.7989L37.2823 10.4452H44.717L44.3576 10.8502V10.3552C44.3277 9.95016 44.1929 9.59016 43.9533 9.27516C43.7287 8.94517 43.4367 8.69016 43.0773 8.51016C42.7179 8.31517 42.3136 8.21766 41.8644 8.21766C41.2055 8.21766 40.644 8.34517 40.1798 8.60016C39.7306 8.85517 39.3861 9.23016 39.1466 9.72516C38.907 10.2202 38.7872 10.8202 38.7872 11.5252C38.7872 12.2452 38.9369 12.8676 39.2364 13.3927C39.5509 13.9177 39.9852 14.3301 40.5392 14.6302C41.1082 14.9151 41.7746 15.0577 42.5383 15.0577C43.0624 15.0577 43.5415 14.9752 43.9758 14.8102C44.4101 14.6451 44.8743 14.3602 45.3684 13.9552L46.8958 16.0927C46.4615 16.4827 45.9824 16.8127 45.4583 17.0827C44.9341 17.3377 44.395 17.5327 43.841 17.6677C43.287 17.8027 42.7404 17.8702 42.2013 17.8702Z" fill="#36364A"/>
<path d="M48.6016 17.6441V5.74164H51.6563L51.7462 8.17164L51.1173 8.44164C51.282 7.90164 51.574 7.41414 51.9933 6.97914C52.4275 6.52914 52.9442 6.16914 53.5431 5.89914C54.1421 5.62914 54.7711 5.49414 55.4299 5.49414C56.3283 5.49414 57.0771 5.67414 57.676 6.03414C58.29 6.39414 58.7468 6.94164 59.0462 7.67664C59.3606 8.39664 59.5179 9.28915 59.5179 10.3541V17.6441H56.3283V10.6016C56.3283 10.0616 56.2535 9.61164 56.1037 9.25164C55.954 8.89164 55.7219 8.62914 55.4074 8.46414C55.108 8.29913 54.7336 8.22414 54.2843 8.23914C53.9249 8.23914 53.588 8.29915 53.2736 8.41914C52.9741 8.52413 52.712 8.68165 52.4874 8.89164C52.2778 9.10164 52.1056 9.34164 51.9708 9.61164C51.8511 9.88164 51.7911 10.1741 51.7911 10.4891V17.6441H50.2188C49.8745 17.6441 49.5674 17.6441 49.2979 17.6441C49.0283 17.6441 48.7963 17.6441 48.6016 17.6441Z" fill="#36364A"/>
<path d="M66.0998 17.8691C65.0517 17.8691 64.1158 17.6066 63.2921 17.0816C62.4835 16.5416 61.8397 15.814 61.3604 14.8991C60.8963 13.969 60.6641 12.8966 60.6641 11.6816C60.6641 10.4966 60.8963 9.43914 61.3604 8.50914C61.8397 7.56414 62.4835 6.82914 63.2921 6.30414C64.1158 5.76414 65.0517 5.49414 66.0998 5.49414C66.654 5.49414 67.1855 5.58414 67.6946 5.76414C68.2187 5.92914 68.6829 6.16164 69.0872 6.46164C69.5066 6.76164 69.8435 7.09914 70.098 7.47414C70.3526 7.83414 70.4949 8.20914 70.5248 8.59914L69.7161 8.75664V0.994141H72.9281V17.6441H69.8958L69.7611 14.8991L70.39 14.9666C70.3601 15.3415 70.2253 15.7015 69.9857 16.0466C69.7461 16.3916 69.4241 16.7066 69.0198 16.9916C68.6306 17.2616 68.1813 17.479 67.6721 17.6441C67.178 17.794 66.654 17.8691 66.0998 17.8691ZM66.8186 15.2141C67.4176 15.2141 67.9417 15.0641 68.3909 14.7641C68.8401 14.464 69.1921 14.0516 69.4466 13.5266C69.7012 13.0015 69.8284 12.3866 69.8284 11.6816C69.8284 10.9916 69.7012 10.3841 69.4466 9.85914C69.1921 9.33414 68.8401 8.92164 68.3909 8.62164C67.9417 8.32164 67.4176 8.17164 66.8186 8.17164C66.2197 8.17164 65.6955 8.32164 65.2463 8.62164C64.8121 8.92164 64.4677 9.33414 64.2131 9.85914C63.9735 10.3841 63.8537 10.9916 63.8537 11.6816C63.8537 12.3866 63.9735 13.0015 64.2131 13.5266C64.4677 14.0516 64.8121 14.464 65.2463 14.7641C65.6955 15.0641 66.2197 15.2141 66.8186 15.2141Z" fill="#36364A"/>
</g>
</g>
</g>
<defs>
<clipPath id="clip0_2247_499">
<rect width="73" height="18" fill="white" transform="translate(0 0.769531)"/>
</clipPath>
<clipPath id="clip1_2247_499">
<rect width="73" height="18" fill="white" transform="translate(0 0.769531)"/>
</clipPath>
<clipPath id="clip2_2247_499">
<rect width="73" height="18" fill="white" transform="translate(0 0.769531)"/>
</clipPath>
</defs>
</svg>
