<svg width="41" height="40" viewBox="0 0 41 40" fill="none" xmlns="http://www.w3.org/2000/svg">
<path fill-rule="evenodd" clip-rule="evenodd" d="M19.33 3.65863C19.9877 3.41255 20.7063 3.38047 21.3833 3.56696L21.67 3.65863L33.3367 8.03363C33.9282 8.25545 34.4445 8.64081 34.8255 9.1448C35.2064 9.6488 35.4363 10.2507 35.4883 10.8803L35.5 11.1553V20.0936C35.4999 22.7943 34.7707 25.4449 33.3893 27.7656C32.008 30.0863 30.0257 31.991 27.6517 33.2786L27.2083 33.5103L21.6183 36.3053C21.3105 36.459 20.9743 36.5475 20.6308 36.5653C20.2872 36.583 19.9437 36.5297 19.6217 36.4086L19.3817 36.3053L13.7917 33.5103C11.376 32.3024 9.33129 30.4648 7.87334 28.1913C6.41539 25.9179 5.5983 23.2929 5.50833 20.5936L5.5 20.0936V11.1553C5.50001 10.5238 5.67938 9.90539 6.01722 9.37192C6.35507 8.83845 6.83749 8.41191 7.40833 8.14196L7.66333 8.03363L19.33 3.65863ZM26.2217 14.382L18.5583 22.0453L15.6117 19.0986C15.2989 18.7861 14.8749 18.6106 14.4327 18.6108C13.9906 18.6109 13.5667 18.7867 13.2542 19.0995C12.9417 19.4122 12.7662 19.8363 12.7663 20.2784C12.7665 20.7205 12.9423 21.1444 13.255 21.457L17.2617 25.4636C17.4319 25.634 17.6341 25.7691 17.8565 25.8613C18.079 25.9535 18.3175 26.0009 18.5583 26.0009C18.7992 26.0009 19.0376 25.9535 19.2601 25.8613C19.4826 25.7691 19.6847 25.634 19.855 25.4636L28.5783 16.7386C28.7375 16.5849 28.8645 16.401 28.9518 16.1976C29.0392 15.9943 29.0852 15.7756 29.0871 15.5543C29.089 15.333 29.0468 15.1135 28.963 14.9087C28.8792 14.7039 28.7555 14.5178 28.599 14.3613C28.4425 14.2048 28.2564 14.0811 28.0516 13.9973C27.8468 13.9135 27.6273 13.8713 27.406 13.8732C27.1847 13.8751 26.966 13.9211 26.7627 14.0085C26.5593 14.0958 26.3754 14.2228 26.2217 14.382Z" fill="#6B0653"/>
</svg>
