<svg width="100" height="29" viewBox="0 0 100 29" fill="none" xmlns="http://www.w3.org/2000/svg">
<g clip-path="url(#clip0_2247_528)">
<g clip-path="url(#clip1_2247_528)">
<g clip-path="url(#clip2_2247_528)">
<path d="M13.8778 0.769531C6.21222 0.769531 0 7.03033 0 14.7538C0 22.4751 6.21333 28.7359 13.8778 28.7359C21.5411 28.7359 27.7544 22.4751 27.7544 14.7527C27.7544 7.03033 21.5422 0.769531 13.8778 0.769531ZM13.8778 4.26505C18.3933 4.26505 22.2089 7.19609 23.6478 11.2572H4.10667C5.54556 7.19609 9.36333 4.26505 13.8778 4.26505ZM13.8778 16.501C13.65 16.501 13.4245 16.4558 13.214 16.3679C13.0036 16.2801 12.8124 16.1513 12.6513 15.9889C12.4903 15.8266 12.3625 15.6339 12.2754 15.4218C12.1882 15.2096 12.1433 14.9823 12.1433 14.7527C12.1433 14.5231 12.1882 14.2958 12.2754 14.0836C12.3625 13.8715 12.4903 13.6788 12.6513 13.5165C12.8124 13.3541 13.0036 13.2253 13.214 13.1375C13.4245 13.0496 13.65 13.0044 13.8778 13.0044C14.3378 13.0044 14.7789 13.1886 15.1042 13.5165C15.4295 13.8443 15.6122 14.289 15.6122 14.7527C15.6122 15.2164 15.4295 15.6611 15.1042 15.9889C14.7789 16.3168 14.3378 16.501 13.8778 16.501ZM3.46889 14.7538C8.20889 14.7538 12.0467 19.3548 12.1289 25.0634C7.22333 24.2167 3.46889 19.9327 3.46889 14.7538ZM15.6244 25.0634C15.7067 19.3559 19.5456 14.7538 24.2856 14.7538C24.2856 19.9327 20.53 24.2178 15.6244 25.0634ZM36.8944 19.8095C36.1233 19.8095 35.4467 19.6829 34.8644 19.4287C34.2736 19.1565 33.7505 18.7547 33.3333 18.2527L34.6511 17.0588C34.9478 17.4452 35.28 17.7386 35.6489 17.9369C36.0156 18.1362 36.4433 18.2359 36.93 18.2359C37.8333 18.2359 38.2833 17.882 38.2833 17.1753C38.2833 16.8986 38.2067 16.6836 38.0522 16.529C37.91 16.3633 37.6611 16.2535 37.3044 16.1975L36.4322 16.0485C35.4578 15.8828 34.7522 15.6005 34.3122 15.2041C33.8733 14.8065 33.6533 14.2263 33.6533 13.4636C33.6533 12.5586 33.9389 11.8844 34.5089 11.4431C35.0789 10.9895 35.8867 10.7633 36.9311 10.7633C37.6544 10.7633 38.2778 10.8741 38.8 11.0948C39.3344 11.3154 39.7978 11.6413 40.1889 12.0725L38.9244 13.2485C38.6826 12.9688 38.3855 12.743 38.0522 12.5855C37.7024 12.4158 37.3182 12.3307 36.93 12.3369C36.0989 12.3369 35.6833 12.6852 35.6833 13.3807C35.6833 13.6685 35.7667 13.8892 35.9333 14.0437C36.1 14.1871 36.3611 14.2868 36.7167 14.3417L37.6067 14.4906C38.5811 14.6564 39.2756 14.9386 39.6911 15.3362C40.1178 15.7226 40.3322 16.2692 40.3322 16.9759C40.3322 17.8719 40.0344 18.5663 39.4411 19.0636C38.8478 19.5609 37.9989 19.8095 36.8944 19.8095ZM42.0811 19.6113V10.9615H44.2356V12.4029H44.4844C44.8533 11.3087 45.5833 10.7622 46.6756 10.7622C47.8389 10.7622 48.5922 11.3311 48.9367 12.469H49.15C49.3522 11.8833 49.6611 11.4521 50.0767 11.1765C50.5033 10.8999 51.0211 10.7622 51.6256 10.7622C52.4089 10.7622 53.02 11.0276 53.4589 11.5573C53.8989 12.077 54.1189 12.8229 54.1189 13.794V19.6101H51.9633V14.1423C51.9633 13.0156 51.53 12.4522 50.6633 12.4522C50.2489 12.4522 49.8922 12.5732 49.5956 12.8162C49.3111 13.0481 49.1678 13.3796 49.1678 13.8108V19.6101H47.0133V14.1423C47.0133 13.5453 46.9067 13.1153 46.6933 12.8498C46.4789 12.5844 46.1589 12.4522 45.7311 12.4522C45.3156 12.4522 44.96 12.5732 44.6633 12.8162C44.3778 13.0481 44.2356 13.3796 44.2356 13.8108V19.6101H42.08L42.0811 19.6113ZM62.4133 19.6113C61.4511 19.6113 60.9467 19.1185 60.8989 18.1362H60.6856C60.5854 18.6384 60.2988 19.083 59.8844 19.3794C59.4689 19.6661 58.9522 19.8095 58.3344 19.8095C57.48 19.8095 56.8389 19.5889 56.4122 19.1465C55.9844 18.7052 55.77 18.0858 55.77 17.2906C55.77 16.3857 56.0733 15.7114 56.6789 15.2701C57.2844 14.8277 58.1567 14.6071 59.2967 14.6071H60.7389V13.8612C60.7389 13.3538 60.62 12.9775 60.3833 12.7345C60.1567 12.4925 59.7778 12.3705 59.2433 12.3705C58.8033 12.3705 58.4356 12.4701 58.1389 12.6684C57.8422 12.8565 57.5811 13.1276 57.3556 13.4804L56.0911 12.4197C56.4356 11.9236 56.8689 11.526 57.3911 11.2269C57.9244 10.9178 58.6022 10.7633 59.4211 10.7633C61.7367 10.7633 62.8933 11.7791 62.8933 13.8119V18.0041H63.7133V19.6113H62.4133ZM59.1544 18.3345C59.5933 18.3345 59.9678 18.2191 60.2767 17.9873C60.5844 17.7442 60.7389 17.4127 60.7389 16.9927V15.8503H59.4389C58.4411 15.8503 57.9433 16.2087 57.9433 16.9266V17.2906C57.9433 17.6557 58.05 17.9212 58.2633 18.0858C58.4778 18.2527 58.7744 18.3345 59.1544 18.3345ZM65.3833 19.6113V10.9615H67.5389V12.7333H67.7878C67.8944 12.1599 68.1144 11.7231 68.4467 11.4252C68.7911 11.1161 69.2356 10.9615 69.7822 10.9615H70.2456V13.0156H69.5333C68.8556 13.0156 68.3522 13.1153 68.0189 13.3135C67.6989 13.5129 67.5389 13.8601 67.5389 14.3573V19.6101L65.3833 19.6113ZM74.5389 19.6113C73.7911 19.6113 73.25 19.4556 72.9189 19.1465C72.5856 18.8373 72.4189 18.3457 72.4189 17.6725V12.5698H71.1911V10.9615H71.8322C72.1411 10.9615 72.3489 10.8943 72.4544 10.7622C72.5744 10.63 72.6333 10.4195 72.6333 10.1327V8.60953H74.5744V10.9615H76.2489V12.5698H74.5744V18.0041H76.1056V19.6113H74.5389ZM81.1467 19.8095C79.8889 19.8095 78.9267 19.4455 78.2622 18.7164C77.6089 17.9873 77.2822 16.8437 77.2822 15.2858C77.2822 13.729 77.6089 12.5866 78.2622 11.8564C78.9267 11.1284 79.8889 10.7633 81.1467 10.7633C82.0611 10.7633 82.7856 10.957 83.32 11.3434C83.869 11.7345 84.2804 12.2915 84.4944 12.9338L82.7322 13.6618C82.6367 13.2429 82.4656 12.9282 82.2156 12.7188C81.9778 12.497 81.6222 12.3873 81.1467 12.3873C80.0789 12.3873 79.5444 12.9831 79.5444 14.1759V16.3969C79.5444 17.5897 80.0778 18.1855 81.1467 18.1855C81.6456 18.1855 82.0256 18.0757 82.2867 17.854C82.5478 17.6333 82.7433 17.2917 82.8744 16.8269L84.5478 17.5729C84.0022 19.0636 82.8678 19.8095 81.1467 19.8095ZM92.1667 19.6113C91.2056 19.6113 90.7011 19.1185 90.6533 18.1362H90.44C90.3397 18.6383 90.0532 19.0829 89.6389 19.3794C89.2233 19.6661 88.7067 19.8095 88.09 19.8095C87.2344 19.8095 86.5933 19.5889 86.1667 19.1465C85.7389 18.7052 85.5256 18.0858 85.5256 17.2906C85.5256 16.3857 85.8278 15.7114 86.4333 15.2701C87.0389 14.8277 87.9111 14.6071 89.0511 14.6071H90.4933V13.8612C90.4933 13.3538 90.3744 12.9775 90.1378 12.7345C89.9122 12.4925 89.5322 12.3705 88.9978 12.3705C88.5589 12.3705 88.19 12.4701 87.8933 12.6684C87.5967 12.8565 87.3356 13.1276 87.11 13.4804L85.8456 12.4197C86.19 11.9236 86.6233 11.526 87.1456 11.2269C87.68 10.9178 88.3567 10.7633 89.1756 10.7633C91.4911 10.7633 92.6489 11.7791 92.6489 13.8119V18.0041H93.4678V19.6113H92.1667ZM88.9089 18.3345C89.3478 18.3345 89.7222 18.2191 90.0311 17.9873C90.3389 17.7442 90.4933 17.4127 90.4933 16.9927V15.8503H89.1933C88.1967 15.8503 87.6978 16.2087 87.6978 16.9266V17.2906C87.6978 17.6557 87.8045 17.9212 88.0178 18.0858C88.2322 18.2527 88.5289 18.3345 88.9089 18.3345ZM95.1389 19.6113V10.9615H97.2933V12.7333H97.5422C97.65 12.1599 97.8689 11.7231 98.2011 11.4252C98.5456 11.1161 98.99 10.9615 99.5367 10.9615H100V13.0156H99.2878C98.61 13.0156 98.1067 13.1153 97.7745 13.3135C97.4533 13.5129 97.2933 13.8601 97.2933 14.3573V19.6101H95.1378L95.1389 19.6113Z" fill="#36364A"/>
</g>
</g>
</g>
<defs>
<clipPath id="clip0_2247_528">
<rect width="100" height="28" fill="white" transform="translate(0 0.769531)"/>
</clipPath>
<clipPath id="clip1_2247_528">
<rect width="100" height="28" fill="white" transform="translate(0 0.769531)"/>
</clipPath>
<clipPath id="clip2_2247_528">
<rect width="100" height="28" fill="white" transform="translate(0 0.769531)"/>
</clipPath>
</defs>
</svg>
