<svg width="105" height="22" viewBox="0 0 105 22" fill="none" xmlns="http://www.w3.org/2000/svg">
<g clip-path="url(#clip0_2247_446)">
<path fill-rule="evenodd" clip-rule="evenodd" d="M12.8 0.210668C12.8813 0.223098 12.9577 0.257425 13.0209 0.309934C13.0841 0.362443 13.1316 0.431136 13.1583 0.508584L13.174 0.565417L13.712 3.31358C14.4316 3.58826 15.11 3.95959 15.7285 4.41725L15.9542 4.59142L18.6708 3.66833C18.8458 3.59317 19.0328 3.64725 19.1646 3.79667C20.0987 4.83892 20.8577 6.09658 21.2981 7.4175C21.3312 7.49114 21.3409 7.57309 21.3259 7.65238C21.3109 7.73167 21.272 7.80451 21.2142 7.86116L21.1663 7.90058L19.0107 9.72475C19.0881 10.1326 19.1102 10.5736 19.1102 11.0026C19.1102 11.3481 19.0955 11.6983 19.0503 12.0329L19.0107 12.2813L21.1663 14.1073C21.2411 14.1602 21.2951 14.2373 21.3191 14.3254C21.3432 14.4135 21.3357 14.5071 21.2981 14.5904C20.8586 15.9122 20.1005 17.1681 19.1655 18.2094C19.0476 18.3432 18.8873 18.401 18.7298 18.3588L18.6708 18.3386L15.9551 17.4146C15.3591 17.8922 14.6931 18.2855 13.9819 18.5843L13.7129 18.6925L13.174 21.4425C13.1554 21.5325 13.1096 21.6147 13.0428 21.6781C12.9759 21.7415 12.8912 21.783 12.8 21.7972C12.0962 21.9256 11.3924 22.0007 10.6674 22.0007C9.94149 22.0007 9.2377 21.9256 8.5339 21.7972C8.45246 21.7847 8.37597 21.7504 8.31267 21.6979C8.24937 21.6454 8.20164 21.5768 8.17463 21.4993L8.15989 21.4425L7.62191 18.6925C6.88991 18.4187 6.2012 18.0418 5.57685 17.5732L5.37879 17.4146L2.6631 18.3386C2.48807 18.4138 2.30106 18.3597 2.16841 18.2094C1.23339 17.1681 0.475243 15.9122 0.0358306 14.5904C0.0028526 14.5167 -0.00679052 14.4348 0.00818523 14.3555C0.0231609 14.2763 0.0620449 14.2034 0.11966 14.1467L0.167563 14.1073L2.32225 12.2813C2.25002 11.859 2.21672 11.4309 2.22276 11.0026C2.22276 10.6597 2.23658 10.3086 2.28172 9.97316L2.32225 9.72566L0.166641 7.90058C0.0918621 7.8477 0.0378492 7.77062 0.0138242 7.68252C-0.0102008 7.59441 -0.00274827 7.50074 0.0349094 7.4175C0.474322 6.09658 1.23247 4.83892 2.16749 3.79667C2.21844 3.73328 2.28648 3.68564 2.36365 3.65934C2.44081 3.63304 2.52391 3.62917 2.60322 3.64817L2.6631 3.66742L5.37879 4.5905C5.98294 4.10096 6.65657 3.70309 7.37779 3.40983L7.62191 3.31267L8.15989 0.564501C8.17825 0.474386 8.22396 0.392048 8.29084 0.328608C8.35773 0.265167 8.44256 0.223681 8.5339 0.209751C9.94173 -0.0699171 11.3912 -0.0699171 12.7991 0.209751L12.8 0.210668ZM73.0501 7.57975C73.5936 7.57975 74.0957 7.69708 74.5572 7.93266C75.0295 8.17685 75.4387 8.52633 75.7529 8.95383C76.0882 9.39933 76.3508 9.94383 76.5415 10.5882C76.7322 11.2336 76.827 11.9641 76.827 12.7827C76.827 13.5481 76.7193 14.2549 76.5009 14.903C76.3021 15.5164 75.9924 16.0886 75.5871 16.5915C75.2051 17.0611 74.7251 17.4427 74.1804 17.7098C73.6159 17.9827 72.9951 18.1208 72.3675 18.1131C71.824 18.1131 71.3689 18.038 71.0014 17.8876C70.636 17.7391 70.2968 17.5336 69.9964 17.279V21.1858H66.8827V7.775H68.8108L68.9057 7.77958C69.0449 7.78699 69.18 7.82958 69.2981 7.90333C69.4331 7.99428 69.531 8.13014 69.5744 8.2865L69.8047 9.03266L69.9586 8.87408C70.1152 8.71917 70.281 8.57616 70.4533 8.44325C71.1959 7.87085 72.1108 7.56639 73.0501 7.57975ZM45.6491 7.93266C45.0416 7.71763 44.4007 7.61149 43.756 7.61916C42.9582 7.61916 42.2434 7.753 41.6105 8.02158C41.0031 8.27246 40.4529 8.64287 39.9929 9.11058C39.5467 9.57011 39.1983 10.1144 38.9685 10.7111C38.7292 11.3279 38.6083 11.984 38.612 12.6452C38.612 13.5481 38.7502 14.3401 39.0293 15.0203C39.3066 15.7014 39.6852 16.2706 40.1642 16.729C40.6433 17.1873 41.2024 17.532 41.8417 17.7648C42.481 17.9967 43.1664 18.1131 43.896 18.1131C44.2516 18.1131 44.6238 18.0884 45.0162 18.0398C45.4077 17.9903 45.7992 17.9023 46.1916 17.774C46.5831 17.6466 46.9654 17.4706 47.3367 17.2441C47.6554 17.0516 47.9557 16.8078 48.2376 16.5163L48.3767 16.366L47.473 15.2761C47.345 15.0991 47.158 15.0102 46.9102 15.0102C46.7222 15.0102 46.5435 15.0533 46.3731 15.1386C46.2018 15.2238 46.0138 15.3182 45.8103 15.4227C45.5855 15.536 45.352 15.6313 45.112 15.7078C44.8504 15.7931 44.539 15.8361 44.1779 15.8361C43.5008 15.8361 42.9481 15.6436 42.5197 15.2614C42.1199 14.9039 41.8629 14.3429 41.7487 13.5775L41.7266 13.4106H47.7337C47.8747 13.4106 47.9898 13.3941 48.0801 13.3621C48.1705 13.3295 48.2469 13.2671 48.2966 13.1851C48.357 13.0794 48.3947 12.9624 48.4071 12.8414C48.4274 12.6975 48.4375 12.5114 48.4375 12.2822C48.4375 11.5489 48.3215 10.8926 48.0902 10.3132C47.8771 9.76174 47.5483 9.26176 47.1257 8.84658C46.7043 8.44103 46.2009 8.12948 45.6491 7.93266ZM60.4122 7.61916C61.0572 7.61138 61.6985 7.71753 62.3062 7.93266C62.858 8.12921 63.3614 8.44045 63.7829 8.84566C64.1946 9.24533 64.5161 9.73483 64.7474 10.3132C64.9777 10.8926 65.0937 11.5489 65.0937 12.2822C65.0937 12.5114 65.0845 12.6975 65.0633 12.8414C65.0509 12.9624 65.0133 13.0794 64.9528 13.1851C64.9034 13.267 64.8273 13.3294 64.7372 13.3621C64.6254 13.3978 64.5083 13.4142 64.3909 13.4106H58.3828L58.4049 13.5775C58.5191 14.3429 58.7761 14.9039 59.1769 15.2614C59.6052 15.6446 60.1579 15.8352 60.835 15.8352C61.1961 15.8352 61.5075 15.7931 61.7682 15.7078C62.0082 15.6316 62.2416 15.5366 62.4665 15.4236C62.671 15.3182 62.8589 15.2238 63.0293 15.1395C63.1997 15.0533 63.3794 15.0111 63.5664 15.0111C63.8151 15.0111 64.0021 15.0991 64.1292 15.2761L65.0339 16.366L64.8938 16.5163C64.6266 16.7965 64.3241 17.0412 63.9938 17.2441C63.6217 17.4706 63.2403 17.6475 62.8488 17.7749C62.4664 17.9004 62.0727 17.9891 61.6733 18.0398C61.2809 18.0884 60.9087 18.1131 60.5531 18.1131C59.8531 18.1183 59.1577 18.0004 58.4989 17.7648C57.8724 17.5408 57.3005 17.1879 56.8204 16.729C56.3414 16.2706 55.9637 15.7023 55.6855 15.0212C55.4073 14.3401 55.2682 13.5481 55.2682 12.6452C55.2682 11.9641 55.388 11.3197 55.6256 10.7111C55.8555 10.1144 56.2039 9.57011 56.65 9.11058C57.1097 8.64298 57.6596 8.27257 58.2667 8.02158C58.8996 7.753 59.6144 7.61825 60.4113 7.61825L60.4122 7.61916ZM85.2966 7.98216C84.6471 7.74016 83.9277 7.61916 83.1373 7.61916C82.3395 7.61916 81.6145 7.74016 80.9614 7.98216C80.3327 8.20928 79.7581 8.56353 79.2738 9.02258C78.794 9.4858 78.4207 10.0468 78.1794 10.6671C77.9214 11.3115 77.7925 12.0366 77.7925 12.8414C77.7925 13.6526 77.9214 14.3841 78.1794 15.0359C78.4373 15.6867 78.8021 16.2395 79.2738 16.6951C79.7576 17.1569 80.3322 17.5142 80.9614 17.7446C81.6154 17.9903 82.3395 18.1131 83.1373 18.1131C83.9277 18.1131 84.648 17.9903 85.2966 17.7446C85.9217 17.5149 86.4916 17.1573 86.9695 16.6951C87.4347 16.2395 87.7967 15.6867 88.0546 15.0359C88.3126 14.3851 88.4415 13.6526 88.4415 12.8414C88.4415 12.0366 88.3126 11.3115 88.0546 10.6671C87.8141 10.0486 87.4442 9.48804 86.9695 9.02258C86.4912 8.56307 85.9212 8.20862 85.2966 7.98216ZM102.165 4.82058V7.79517H104.696V9.876H102.165V14.9323L102.168 15.0313C102.182 15.2229 102.24 15.3851 102.341 15.5171C102.458 15.6702 102.626 15.7472 102.847 15.7472C103.017 15.7509 103.184 15.7121 103.335 15.6345C103.392 15.6051 103.445 15.5795 103.496 15.5556C103.551 15.5318 103.611 15.5202 103.672 15.5217C103.752 15.5181 103.831 15.5406 103.897 15.5859C103.955 15.6281 104.013 15.695 104.073 15.7866L105.018 17.2295L104.865 17.3367C104.494 17.5817 104.089 17.7691 103.662 17.8922C103.159 18.0389 102.64 18.1131 102.104 18.1131C101.608 18.1131 101.172 18.0426 100.793 17.9023C100.435 17.7742 100.109 17.5695 99.8386 17.3028C99.5763 17.037 99.3757 16.7172 99.2509 16.366C99.1125 15.9716 99.0445 15.5562 99.0501 15.1386V9.87691H98.1657L98.0874 9.87233C97.9633 9.85972 97.8465 9.80802 97.7539 9.72475C97.6406 9.62391 97.5835 9.4745 97.5835 9.27741V8.09033L99.2407 7.77592L99.8543 5.29175L99.8773 5.21658C99.9731 4.95258 100.193 4.82058 100.537 4.82058H102.165ZM37.8889 6.28358V3.65275H26.255V6.28358H30.3737V17.9564H33.7693V6.28358H37.8889ZM53.4396 3.26042V17.9564H50.326V3.26042H53.4396ZM97.0603 7.91341C96.7719 7.69066 96.3906 7.57975 95.9152 7.57975C95.3524 7.57975 94.8328 7.74658 94.3575 8.08025C93.9076 8.40455 93.5163 8.80254 93.2004 9.25725L93.0715 9.44425L92.9011 8.49275C92.8791 8.37892 92.8471 8.26725 92.8052 8.15908C92.7722 8.07271 92.717 7.99652 92.645 7.93817C92.5675 7.87924 92.4783 7.83737 92.3833 7.81533C92.2927 7.79393 92.2001 7.78165 92.107 7.77866L91.9964 7.77592H90.1494V17.9564H93.2631V11.7121C93.732 10.8614 94.375 10.4361 95.1921 10.4361C95.427 10.4361 95.6214 10.4507 95.7752 10.4801C95.929 10.5094 96.0626 10.525 96.1768 10.525C96.3104 10.525 96.4182 10.4975 96.4983 10.4416C96.5684 10.3887 96.6185 10.3137 96.6402 10.2289L96.6596 10.1519L97.0603 7.91341ZM10.6665 4.56392C7.08485 4.56392 4.18492 7.44591 4.18492 11.0007C4.18492 14.5556 7.0867 17.4376 10.6665 17.4376C14.2463 17.4376 17.1481 14.5556 17.1481 11.0007C17.1481 7.44591 14.2472 4.56392 10.6665 4.56392ZM71.3477 9.97042C71.532 9.92733 71.7374 9.90625 71.965 9.90625C72.2137 9.90625 72.4375 9.95483 72.6384 10.0529C72.8392 10.1519 73.0124 10.3132 73.1561 10.5387C73.2998 10.7651 73.4122 11.0612 73.4923 11.4279C73.5724 11.7946 73.613 12.2456 73.613 12.7827C73.613 13.3456 73.5623 13.8231 73.4628 14.2155C73.3615 14.6087 73.2233 14.9277 73.0455 15.1734C72.8677 15.4181 72.6586 15.5969 72.4173 15.7078C72.1684 15.8207 71.8976 15.8776 71.6241 15.8746C71.3229 15.8746 71.0345 15.8242 70.76 15.7225C70.5112 15.6269 70.2855 15.4801 70.0977 15.2916L69.9964 15.1881V10.8678C70.121 10.7203 70.2552 10.581 70.398 10.4507C70.5294 10.3317 70.6767 10.2311 70.8356 10.1519C70.9922 10.0731 71.1635 10.0126 71.3477 9.97042ZM83.1373 9.87691C82.4003 9.87691 81.8614 10.1226 81.5196 10.613C81.1779 11.1034 81.0074 11.8532 81.0074 12.8616C81.0074 13.869 81.1779 14.6197 81.5196 15.1138C81.8605 15.6088 82.4003 15.8554 83.1373 15.8554C83.853 15.8554 84.3809 15.6079 84.719 15.1138C85.057 14.6197 85.2256 13.869 85.2256 12.8616C85.2256 11.8532 85.057 11.1034 84.719 10.613C84.3809 10.1216 83.853 9.87691 83.1373 9.87691ZM14.7686 10.1061V8.19025H6.56438V10.1061H9.69001V14.7077H11.643V10.1061H14.7686ZM43.8159 9.71925C43.2198 9.71925 42.7546 9.88425 42.4193 10.2151C42.0849 10.5451 41.8638 11.0218 41.7561 11.6433H45.6435C45.6441 11.4048 45.6122 11.1674 45.5486 10.9375C45.488 10.7138 45.382 10.5048 45.2373 10.3233C45.0842 10.1365 44.8901 9.98726 44.6698 9.887C44.4349 9.77516 44.1503 9.71925 43.8159 9.71925ZM59.0765 10.2151C59.4108 9.88516 59.8761 9.72016 60.4721 9.72016C60.8074 9.72016 61.092 9.77517 61.326 9.88608C61.5609 9.99792 61.7498 10.1427 61.8944 10.3233C62.0381 10.503 62.1422 10.7083 62.2058 10.9375C62.2693 11.1666 62.3006 11.4013 62.3006 11.6433H58.4132C58.5201 11.0218 58.7411 10.5461 59.0765 10.2151Z" fill="#36364A"/>
</g>
<defs>
<clipPath id="clip0_2247_446">
<rect width="105" height="22" fill="white"/>
</clipPath>
</defs>
</svg>
