<svg width="1440" height="559" viewBox="0 0 1440 559" fill="none" xmlns="http://www.w3.org/2000/svg">
<rect width="1440" height="559" fill="#6B0653"/>
<mask id="mask0_2247_596" style="mask-type:luminance" maskUnits="userSpaceOnUse" x="0" y="0" width="1440" height="559">
<rect width="1440" height="559" fill="white"/>
</mask>
<g mask="url(#mask0_2247_596)">
<g opacity="0.0636858">
<mask id="mask1_2247_596" style="mask-type:luminance" maskUnits="userSpaceOnUse" x="167" y="-120" width="1135" height="1108">
<path fill-rule="evenodd" clip-rule="evenodd" d="M167.596 -119.283H1301.62V987.043H167.596V-119.283Z" fill="white"/>
</mask>
<g mask="url(#mask1_2247_596)">
<path fill-rule="evenodd" clip-rule="evenodd" d="M1299.55 340.779C1299.91 332.888 1296.15 325.481 1289.52 320.97L651.423 -113.163C646.281 -116.664 640.046 -118 633.87 -116.929C627.698 -115.854 622.32 -112.501 618.737 -107.481L173.861 514.905C171.309 518.475 169.857 522.654 169.663 526.983C169.311 534.875 173.063 542.278 179.694 546.795L817.79 980.927C822.937 984.428 829.166 985.764 835.346 984.693C841.517 983.615 846.895 980.267 850.48 975.246L1295.35 352.861C1297.91 349.29 1299.36 345.109 1299.55 340.779ZM167.621 526.896C167.833 522.186 169.412 517.647 172.187 513.765L617.058 -108.622C620.957 -114.077 626.801 -117.723 633.513 -118.891C640.225 -120.057 646.999 -118.603 652.592 -114.799L1290.69 319.335C1297.9 324.242 1301.98 332.29 1301.59 340.867C1301.38 345.575 1299.8 350.115 1297.03 354L852.153 976.384C848.256 981.839 842.415 985.483 835.703 986.65C828.993 987.82 822.217 986.363 816.621 982.558L178.528 548.425C171.317 543.521 167.237 535.472 167.621 526.896Z" fill="#DADADA"/>
</g>
<path fill-rule="evenodd" clip-rule="evenodd" d="M1269.91 334.501C1270.25 326.931 1266.69 319.781 1260.38 315.375L643.938 -115.486C638.976 -118.958 632.924 -120.335 626.898 -119.365C620.872 -118.394 615.597 -115.193 612.039 -110.351L170.516 490.911C167.925 494.442 166.453 498.588 166.26 502.905C165.922 510.476 169.484 517.627 175.791 522.029L792.234 952.896C802.487 960.054 816.793 957.755 824.131 947.76L1265.65 346.495C1268.25 342.966 1269.72 338.816 1269.91 334.501ZM164.22 502.814C164.427 498.114 166.032 493.595 168.855 489.75L610.38 -111.51C614.253 -116.786 620.001 -120.272 626.563 -121.33C633.126 -122.387 639.718 -120.887 645.126 -117.107L1261.57 313.757C1268.44 318.556 1272.32 326.342 1271.95 334.587C1271.74 339.29 1270.14 343.811 1267.31 347.655L825.788 948.915C817.795 959.804 802.203 962.315 791.043 954.514L174.599 523.649C167.732 518.851 163.85 511.063 164.22 502.814Z" fill="#DADADA"/>
<path fill-rule="evenodd" clip-rule="evenodd" d="M1240.27 328.221C1240.59 320.973 1237.21 314.078 1231.24 309.779L636.449 -117.811C626.573 -124.911 612.618 -122.85 605.34 -113.217L167.168 466.921C164.534 470.403 163.04 474.524 162.848 478.831C162.524 486.078 165.9 492.971 171.88 497.268L766.665 924.862C771.454 928.302 777.322 929.716 783.199 928.849C789.077 927.984 794.255 924.933 797.78 920.268L1235.95 340.127C1238.59 336.646 1240.08 332.527 1240.27 328.221ZM160.808 478.738C161.019 474.037 162.647 469.542 165.522 465.741L603.697 -114.399C611.642 -124.917 626.877 -127.166 637.659 -119.415L1232.45 308.175C1238.98 312.87 1242.66 320.398 1242.31 328.309C1242.1 333.011 1240.47 337.506 1237.6 341.311L799.423 921.45C795.573 926.543 789.924 929.872 783.506 930.817C777.092 931.765 770.682 930.219 765.46 926.466L170.67 498.873C164.143 494.179 160.455 486.654 160.808 478.738Z" fill="#DADADA"/>
<path fill-rule="evenodd" clip-rule="evenodd" d="M1210.64 321.942C1210.95 315.011 1207.75 308.375 1202.1 304.186L628.964 -120.134C624.357 -123.544 618.669 -125 612.941 -124.235C607.218 -123.47 602.138 -120.575 598.646 -116.083L163.817 442.934C161.143 446.376 159.626 450.461 159.435 454.756C159.125 461.685 162.316 468.32 167.974 472.51L741.114 896.83C750.615 903.861 764.215 902.048 771.428 892.78L1206.26 333.764C1208.93 330.325 1210.45 326.238 1210.64 321.942ZM157.398 454.666C157.606 449.966 159.265 445.49 162.193 441.729L597.019 -117.286C600.844 -122.202 606.401 -125.37 612.665 -126.208C618.931 -127.045 625.157 -125.45 630.198 -121.721L1203.33 302.601C1209.52 307.184 1213.02 314.446 1212.68 322.03C1212.47 326.731 1210.81 331.207 1207.88 334.97L773.056 893.984C765.161 904.127 750.279 906.12 739.878 898.417L166.743 474.095C160.551 469.511 157.058 462.253 157.398 454.666Z" fill="#DADADA"/>
<path fill-rule="evenodd" clip-rule="evenodd" d="M1181.01 315.663C1181.31 309.047 1178.29 302.665 1172.96 298.589L621.478 -122.461C617.052 -125.837 611.544 -127.334 605.968 -126.67C600.388 -126.007 595.413 -123.266 591.95 -118.95L160.47 418.943C157.749 422.331 156.212 426.386 156.02 430.674C155.724 437.289 158.736 443.672 164.073 447.749L715.553 868.799C719.981 872.175 725.485 873.67 731.064 873.007C736.641 872.346 741.619 869.602 745.083 865.286L1176.56 327.395C1179.28 324.008 1180.82 319.949 1181.01 315.663ZM153.979 430.584C154.191 425.879 155.877 421.432 158.86 417.709L590.341 -120.179C594.139 -124.913 599.602 -127.921 605.718 -128.647C611.837 -129.375 617.878 -127.735 622.736 -124.028L1174.21 297.02C1180.07 301.49 1183.37 308.492 1183.05 315.749C1182.84 320.453 1181.15 324.905 1178.17 328.625L746.69 866.513C742.891 871.253 737.428 874.26 731.311 874.982C725.193 875.715 719.148 874.073 714.297 870.367L162.813 449.317C156.958 444.845 153.656 437.842 153.979 430.584Z" fill="#DADADA"/>
<path fill-rule="evenodd" clip-rule="evenodd" d="M1151.38 309.384C1151.67 303.081 1148.84 296.956 1143.81 292.995L613.986 -124.785C605.221 -131.695 592.33 -130.364 585.25 -121.816L157.114 394.956C154.352 398.289 152.785 402.317 152.594 406.596C152.311 412.901 155.144 419.025 160.166 422.986L689.993 840.763C694.24 844.116 699.567 845.648 704.991 845.089C710.422 844.524 715.301 841.937 718.729 837.797L1146.86 321.029C1149.63 317.691 1151.2 313.663 1151.38 309.384ZM150.556 406.511C150.765 401.803 152.487 397.375 155.53 393.702L583.662 -123.067C591.449 -132.469 605.629 -133.934 615.27 -126.334L1145.1 291.448C1150.62 295.8 1153.73 302.54 1153.43 309.471C1153.22 314.177 1151.5 318.607 1148.45 322.283L720.319 839.047C716.548 843.605 711.178 846.452 705.211 847.068C699.24 847.687 693.381 846 688.712 842.314L158.885 424.536C153.359 420.181 150.246 413.442 150.556 406.511Z" fill="#DADADA"/>
<path fill-rule="evenodd" clip-rule="evenodd" d="M1121.77 303.102C1122.04 297.024 1119.46 291.297 1114.67 287.396L606.502 -127.113C602.433 -130.427 597.29 -132.002 592.01 -131.543C586.731 -131.084 581.954 -128.647 578.555 -124.681L153.769 370.964C150.95 374.253 149.36 378.245 149.17 382.515C148.899 388.597 151.489 394.326 156.268 398.225L664.441 812.735C672.836 819.582 685.371 818.491 692.386 810.303L1117.17 314.659C1119.99 311.372 1121.58 307.376 1121.77 303.102ZM147.131 382.428C147.339 377.721 149.093 373.313 152.2 369.685L576.986 -125.958C580.736 -130.333 586.005 -133.02 591.828 -133.525C597.65 -134.032 603.326 -132.295 607.81 -128.638L1115.98 285.868C1121.26 290.171 1124.11 296.482 1123.81 303.193C1123.6 307.907 1121.85 312.311 1118.74 315.936L693.952 811.582C686.212 820.612 672.387 821.812 663.128 814.264L154.957 399.758C149.682 395.455 146.829 389.139 147.131 382.428Z" fill="#DADADA"/>
<path fill-rule="evenodd" clip-rule="evenodd" d="M1092.16 296.827C1092.42 291.053 1090 285.579 1085.53 281.797L599.012 -129.435C595.126 -132.724 590.161 -134.337 585.028 -133.978C579.898 -133.621 575.221 -131.337 571.851 -127.546L150.419 346.975C147.545 350.211 145.926 354.173 145.736 358.441C145.477 364.213 147.895 369.691 152.363 373.471L638.881 784.706C642.77 787.991 647.736 789.603 652.867 789.246C657.993 788.891 662.671 786.607 666.04 782.815L1087.47 308.292C1090.35 305.06 1091.97 301.094 1092.16 296.827ZM143.694 358.354C143.905 353.633 145.699 349.248 148.875 345.673L570.308 -128.85C574.033 -133.044 579.209 -135.571 584.882 -135.965C590.558 -136.361 596.051 -134.577 600.348 -130.942L1086.86 280.292C1091.81 284.474 1094.48 290.531 1094.2 296.914C1093.99 301.632 1092.2 306.018 1089.02 309.6L667.582 784.116C663.86 788.313 658.683 790.839 653.011 791.236C647.336 791.627 641.842 789.846 637.547 786.209L151.026 374.974C146.08 370.793 143.411 364.738 143.694 358.354Z" fill="#DADADA"/>
<path fill-rule="evenodd" clip-rule="evenodd" d="M1062.55 290.546C1062.8 285.082 1060.55 279.853 1056.38 276.197L591.517 -131.768C587.812 -135.023 583.027 -136.672 578.046 -136.415C573.066 -136.16 568.484 -134.028 565.151 -130.411L147.063 322.988C144.173 326.118 142.479 330.16 142.291 334.362C142.049 339.825 144.297 345.056 148.46 348.709L613.324 756.677C617.029 759.928 621.814 761.581 626.799 761.326C631.775 761.069 636.356 758.938 639.693 755.323L1057.78 301.922C1060.67 298.791 1062.37 294.748 1062.55 290.546ZM140.25 334.278C140.461 329.614 142.337 325.128 145.545 321.657L563.632 -131.742C567.33 -135.752 572.412 -138.121 577.939 -138.405C583.465 -138.689 588.772 -136.856 592.885 -133.246L1057.75 274.72C1062.37 278.772 1064.86 284.573 1064.59 290.634C1064.38 295.297 1062.5 299.777 1059.3 303.256L641.209 756.655C637.511 760.663 632.43 763.032 626.904 763.316C621.38 763.6 616.07 761.77 611.958 758.156L147.093 350.188C142.473 346.138 139.982 340.336 140.25 334.278Z" fill="#DADADA"/>
<path fill-rule="evenodd" clip-rule="evenodd" d="M1032.96 284.27C1033.19 279.11 1031.11 274.128 1027.24 270.6L584.031 -134.092C580.502 -137.316 575.895 -139.006 571.067 -138.849C566.235 -138.694 561.753 -136.713 558.449 -133.269L143.712 299.004C140.761 302.078 139.033 306.086 138.845 310.29C138.616 315.451 140.698 320.432 144.557 323.96L587.77 728.65C595.053 735.305 606.531 734.937 613.35 727.831L1028.09 295.556C1031.04 292.481 1032.77 288.474 1032.96 284.27ZM136.804 310.203C137.015 305.525 138.938 301.063 142.219 297.642L556.958 -134.631C560.634 -138.463 565.618 -140.668 570.995 -140.841C576.372 -141.013 581.497 -139.135 585.425 -135.546L1028.64 269.148C1032.94 273.071 1035.25 278.614 1035 284.357C1034.79 289.033 1032.86 293.493 1029.58 296.918L614.838 729.192C607.25 737.1 594.478 737.51 586.374 730.104L143.163 325.411C138.866 321.488 136.549 315.942 136.804 310.203Z" fill="#DADADA"/>
<path fill-rule="evenodd" clip-rule="evenodd" d="M1003.37 277.988C1003.58 273.131 1001.66 268.394 998.097 264.998L576.542 -136.427C569.622 -143.015 558.498 -142.883 551.746 -136.135L140.355 275.015C137.34 278.024 135.574 282.004 135.388 286.205C135.169 291.069 137.092 295.802 140.658 299.199L562.213 700.626C569.135 707.211 580.255 707.076 587.005 700.331L998.397 289.183C1001.41 286.17 1003.18 282.193 1003.37 277.988ZM133.349 286.117C133.556 281.427 135.528 276.987 138.893 273.622L550.286 -137.528C557.825 -145.061 570.24 -145.206 577.964 -137.85L999.521 263.573C1003.5 267.363 1005.65 272.651 1005.4 278.078C1005.2 282.771 1003.23 287.212 999.858 290.576L588.465 701.723C580.928 709.257 568.512 709.405 560.786 702.048L139.234 300.622C135.251 296.832 133.106 291.545 133.349 286.117Z" fill="#DADADA"/>
<path fill-rule="evenodd" clip-rule="evenodd" d="M973.783 271.712C973.989 267.146 972.224 262.66 968.95 259.401L569.046 -138.755C562.493 -145.278 551.726 -145.386 545.041 -138.997L136.998 251.027C133.913 253.977 132.108 257.919 131.918 262.131C131.716 266.696 133.481 271.182 136.756 274.445L536.653 672.603C543.208 679.125 553.974 679.23 560.662 672.836L968.705 282.815C971.79 279.866 973.594 275.921 973.783 271.712ZM129.879 262.042C130.091 257.327 132.115 252.91 135.57 249.604L543.611 -140.422C551.102 -147.579 563.163 -147.457 570.504 -140.151L970.408 258.003C974.079 261.657 976.051 266.684 975.824 271.797C975.613 276.515 973.589 280.931 970.133 284.237L562.092 674.264C554.607 681.42 542.539 681.299 535.199 673.994L135.296 275.841C131.628 272.185 129.651 267.154 129.879 262.042Z" fill="#DADADA"/>
<path fill-rule="evenodd" clip-rule="evenodd" d="M944.213 265.434C944.406 261.098 942.841 256.963 939.8 253.791L561.552 -141.088C558.56 -144.214 554.493 -146.019 550.11 -146.164C545.724 -146.31 541.542 -144.78 538.336 -141.859L133.644 227.043C130.481 229.926 128.637 233.834 128.448 238.053C128.254 242.388 129.818 246.523 132.855 249.695L511.105 644.574C517.29 651.03 527.703 651.372 534.322 645.344L939.017 276.442C942.181 273.561 944.022 269.651 944.213 265.434ZM126.407 237.963C126.619 233.219 128.692 228.83 132.244 225.591L536.942 -143.313C540.546 -146.599 545.245 -148.318 550.179 -148.153C555.108 -147.99 559.677 -145.963 563.048 -142.447L941.293 252.433C944.71 255.999 946.47 260.647 946.254 265.522C946.041 270.265 943.966 274.661 940.408 277.898L535.714 646.802C528.279 653.58 516.566 653.195 509.612 645.938L131.364 251.055C127.951 247.487 126.187 242.842 126.407 237.963Z" fill="#DADADA"/>
<path fill-rule="evenodd" clip-rule="evenodd" d="M914.649 259.157C914.832 255.11 913.412 251.219 910.655 248.19L554.061 -143.419C548.24 -149.81 538.178 -150.393 531.627 -144.72L130.28 203.062C127.038 205.87 125.149 209.744 124.961 213.974C124.781 218.018 126.199 221.916 128.957 224.943L485.551 616.554C491.37 622.946 501.43 623.529 507.985 617.851L909.329 270.072C912.573 267.263 914.463 263.385 914.649 259.157ZM122.92 213.886C123.134 209.117 125.268 204.741 128.928 201.571L530.272 -146.21C537.663 -152.613 549.019 -151.955 555.587 -144.744L912.184 246.868C915.293 250.283 916.897 254.677 916.692 259.243C916.478 264.017 914.344 268.389 910.688 271.561L509.34 619.346C501.947 625.743 490.59 625.088 484.021 617.875L127.429 226.269C124.318 222.849 122.716 218.453 122.92 213.886Z" fill="#DADADA"/>
<path fill-rule="evenodd" clip-rule="evenodd" d="M885.103 252.879C885.271 249.12 883.994 245.462 881.51 242.581L546.568 -145.757C543.928 -148.821 540.22 -150.698 536.133 -151.041C532.042 -151.385 528.06 -150.157 524.921 -147.579L126.922 179.079C123.641 181.77 121.654 185.712 121.466 189.895C121.298 193.654 122.572 197.31 125.058 200.194L459.998 588.534C465.451 594.855 475.165 595.672 481.647 590.352L879.646 263.699C882.926 261.006 884.916 257.062 885.103 252.879ZM119.425 189.809C119.637 185.068 121.891 180.603 125.605 177.555L523.605 -149.104C527.165 -152.022 531.673 -153.416 536.307 -153.025C540.94 -152.635 545.138 -150.508 548.131 -147.039L883.069 241.3C885.886 244.565 887.331 248.708 887.142 252.965C886.931 257.705 884.677 262.173 880.96 265.225L482.96 591.879C475.617 597.906 464.613 596.979 458.437 589.816L123.498 201.474C120.681 198.211 119.235 194.068 119.425 189.809Z" fill="#DADADA"/>
<path fill-rule="evenodd" clip-rule="evenodd" d="M855.564 246.603C855.719 243.122 854.582 239.704 852.361 236.973L539.073 -148.092C536.606 -151.123 533.078 -153.038 529.136 -153.481C525.196 -153.924 521.316 -152.843 518.212 -150.44L123.558 155.095C120.185 157.706 118.144 161.613 117.955 165.818C117.802 169.294 118.939 172.713 121.159 175.447L434.443 560.515C439.535 566.774 448.894 567.826 455.31 562.859L849.959 257.329C853.334 254.717 855.378 250.806 855.564 246.603ZM115.914 165.729C116.125 160.949 118.451 156.507 122.291 153.534L516.939 -152C520.473 -154.735 524.887 -155.964 529.37 -155.46C533.853 -154.955 537.867 -152.779 540.673 -149.33L853.958 235.737C856.485 238.841 857.781 242.733 857.603 246.691C857.389 251.47 855.07 255.917 851.23 258.886L456.574 564.422C449.288 570.068 438.637 568.871 432.846 561.753L119.558 176.689C117.034 173.577 115.738 169.686 115.914 165.729Z" fill="#DADADA"/>
<path fill-rule="evenodd" clip-rule="evenodd" d="M826.042 240.329C826.185 237.124 825.18 233.941 823.213 231.362L531.579 -150.433C526.85 -156.623 517.842 -157.909 511.494 -153.299L120.198 131.113C116.722 133.637 114.619 137.509 114.431 141.734C114.29 144.938 115.296 148.12 117.262 150.702L408.897 532.5C413.623 538.689 422.632 539.973 428.976 535.363L820.28 250.954C823.755 248.429 825.852 244.557 826.042 240.329ZM112.39 141.647C112.605 136.818 115.008 132.397 118.976 129.51L510.275 -154.896C517.523 -160.164 527.815 -158.695 533.217 -151.623L824.847 230.173C827.095 233.116 828.248 236.754 828.082 240.416C827.867 245.244 825.466 249.666 821.497 252.553L430.197 536.959C422.949 542.225 412.659 540.755 407.257 533.688L115.624 151.891C113.377 148.945 112.227 145.307 112.39 141.647Z" fill="#DADADA"/>
<path fill-rule="evenodd" clip-rule="evenodd" d="M796.534 234.054C796.665 231.075 795.813 228.203 794.064 225.749L524.085 -152.777C519.718 -158.9 511.059 -160.417 504.78 -156.16L116.827 107.127C113.246 109.559 111.082 113.392 110.892 117.65C110.761 120.629 111.616 123.498 113.365 125.951L383.341 504.481C387.708 510.608 396.366 512.123 402.646 507.862L790.601 244.578C794.182 242.148 796.343 238.309 796.534 234.054ZM108.853 117.562C109.07 112.681 111.553 108.279 115.664 105.491L503.613 -157.794C510.816 -162.678 520.75 -160.939 525.759 -153.915L795.738 224.612C797.745 227.427 798.727 230.72 798.572 234.139C798.355 239.023 795.875 243.424 791.77 246.214L403.81 509.501C396.61 514.386 386.675 512.645 381.667 505.621L111.689 127.093C109.681 124.279 108.7 120.985 108.853 117.562Z" fill="#DADADA"/>
<path fill-rule="evenodd" clip-rule="evenodd" d="M767.044 227.782C767.166 225.068 766.431 222.425 764.913 220.135L516.589 -155.122C512.581 -161.174 504.271 -162.923 498.063 -159.016L113.458 83.1435C109.815 85.4411 107.524 89.3374 107.337 93.57C107.216 96.2822 107.954 98.9232 109.471 101.213L357.793 476.474C361.799 482.525 370.108 484.272 376.317 480.364L760.924 238.203C764.566 235.909 766.852 232.014 767.044 227.782ZM105.298 93.4817C105.516 88.6029 108.154 84.1142 112.352 81.4724L496.957 -160.69C504.108 -165.194 513.686 -163.178 518.305 -156.2L766.627 219.055C768.375 221.693 769.224 224.741 769.084 227.868C768.867 232.744 766.23 237.235 762.029 239.875L377.425 482.038C370.273 486.54 360.696 484.527 356.079 477.552L107.752 102.297C106.009 99.6553 105.158 96.6094 105.298 93.4817Z" fill="#DADADA"/>
<path fill-rule="evenodd" clip-rule="evenodd" d="M737.568 221.506C737.679 219.056 737.053 216.638 735.764 214.518L509.095 -157.468C505.444 -163.455 497.481 -165.433 491.344 -161.876L110.088 59.1627C106.319 61.3468 103.953 65.207 103.762 69.4844C103.653 71.9379 104.279 74.3543 105.57 76.4768L332.24 448.462C335.89 454.45 343.852 456.428 349.987 452.867L731.247 231.829C735.016 229.645 737.378 225.786 737.568 221.506ZM101.725 69.3965C101.947 64.4439 104.682 59.9772 109.044 57.4507L490.299 -163.589C497.407 -167.708 506.625 -165.417 510.847 -158.485L737.517 213.497C739.014 215.954 739.736 218.751 739.611 221.596C739.39 226.548 736.653 231.013 732.291 233.544L351.032 454.582C343.929 458.698 334.709 456.41 330.486 449.48L103.816 77.4937C102.321 75.0393 101.598 72.2364 101.725 69.3965Z" fill="#DADADA"/>
<path fill-rule="evenodd" clip-rule="evenodd" d="M708.118 215.238C708.216 213.037 707.698 210.843 706.612 208.896L501.597 -159.818C498.305 -165.739 490.691 -167.945 484.619 -164.734L106.711 35.1775C102.809 37.2436 100.364 41.0624 100.17 45.3962C100.071 47.5979 100.59 49.7916 101.674 51.7398L306.691 420.453C309.984 426.374 317.598 428.581 323.669 425.369L701.577 225.454C705.48 223.39 707.926 219.573 708.118 215.238ZM98.131 45.3112C98.3524 40.3471 101.267 35.7959 105.74 33.4305L483.648 -166.485C490.707 -170.217 499.565 -167.652 503.394 -160.765L708.409 207.947C709.669 210.215 710.271 212.762 710.16 215.326C709.936 220.288 707.02 224.841 702.553 227.208L324.641 427.122C317.583 430.856 308.726 428.29 304.895 421.401L99.8824 52.69C98.6215 50.4214 98.0158 47.8712 98.131 45.3112Z" fill="#DADADA"/>
<mask id="mask2_2247_596" style="mask-type:luminance" maskUnits="userSpaceOnUse" x="94" y="-171" width="587" height="573">
<path fill-rule="evenodd" clip-rule="evenodd" d="M94.5 -170.785H680.745V401.066H94.5V-170.785Z" fill="white"/>
</mask>
<g mask="url(#mask2_2247_596)">
<path fill-rule="evenodd" clip-rule="evenodd" d="M678.691 208.97C678.778 207.014 678.353 205.045 677.461 203.274L494.1 -162.168C491.167 -168.022 483.896 -170.456 477.896 -167.592L103.333 11.2C99.3433 13.1041 96.7477 16.9784 96.5542 21.3095C96.4669 23.2674 96.889 25.2375 97.7791 27.0096L281.14 392.452C284.078 398.304 291.345 400.738 297.346 397.872L671.909 219.085C675.896 217.179 678.496 213.304 678.691 208.97ZM94.5133 21.2215C94.7392 16.1597 97.7767 11.6322 102.433 9.41032L476.996 -169.382C484.007 -172.727 492.505 -169.885 495.938 -163.045L679.301 202.397C680.338 204.467 680.834 206.769 680.732 209.057C680.505 214.12 677.47 218.648 672.806 220.871L298.244 399.66C291.232 403.01 282.737 400.167 279.306 393.326L95.9416 27.882C94.9039 25.8159 94.4107 23.5103 94.5133 21.2215Z" fill="#DADADA"/>
</g>
</g>
</g>
</svg>
