<svg width="79" height="79" viewBox="0 0 79 79" fill="none" xmlns="http://www.w3.org/2000/svg">
<rect opacity="0.1" width="79" height="79" rx="15" fill="#FADA5E"/>
<path d="M28.399 46.0894C29.6678 48.6554 31.7261 50.7468 34.2715 52.0564C36.7983 53.3545 39.6796 53.7927 42.478 53.3044C45.2849 52.8104 47.8566 51.4212 49.8085 49.3444C51.7779 47.2475 53.032 44.5803 53.3905 41.7259C53.7539 38.865 53.2059 35.9624 51.8245 33.4309C50.4557 30.9187 48.3161 28.9126 45.721 27.7084C43.1435 26.5147 40.247 26.1945 37.471 26.7964C34.696 27.3979 32.422 28.7659 30.541 30.9289C30.3145 31.1689 29.4385 32.1379 28.711 33.6004M33.25 33.9994L27.8365 35.0794L26.5 29.4994M40 35.4994V41.4994L44.5 44.4994" stroke="#F8CE2A" stroke-width="3" stroke-linecap="round" stroke-linejoin="round"/>
</svg>
