<svg width="79" height="79" viewBox="0 0 79 79" fill="none" xmlns="http://www.w3.org/2000/svg">
<rect opacity="0.1" width="79" height="79" rx="15" fill="#CC0B9E"/>
<g clip-path="url(#clip0_3081_22203)">
<path d="M39.8698 21.9574C39.8113 21.968 39.7535 21.9823 39.6968 22.0003C39.3842 22.0704 39.1055 22.2467 38.9084 22.4991C38.7112 22.7516 38.6076 23.0647 38.6154 23.3849V24.7695H26.1538C25.0522 24.7695 23.9956 25.2072 23.2166 25.9862C22.4376 26.7652 22 27.8217 22 28.9234V46.9234C22 49.2163 23.8609 51.0772 26.1538 51.0772H38.6154V51.5965L31.0858 55.3612C30.7531 55.5219 30.4979 55.8081 30.3762 56.157C30.2546 56.5059 30.2765 56.8888 30.4372 57.2215C30.5978 57.5542 30.8841 57.8094 31.2329 57.9311C31.5818 58.0527 31.9647 58.0308 32.2974 57.8702L38.6154 54.7118V55.2311C38.6154 55.5983 38.7613 55.9505 39.0209 56.2101C39.2806 56.4698 39.6328 56.6157 40 56.6157C40.3672 56.6157 40.7194 56.4698 40.9791 56.2101C41.2387 55.9505 41.3846 55.5983 41.3846 55.2311V54.7118L47.7026 57.8702C48.0353 58.0308 48.4182 58.0527 48.7671 57.9311C49.1159 57.8094 49.4022 57.5542 49.5628 57.2215C49.7235 56.8888 49.7454 56.5059 49.6238 56.157C49.5021 55.8081 49.2469 55.5219 48.9142 55.3612L41.3846 51.5965V51.0772H53.8462C56.1391 51.0772 58 49.2163 58 46.9234V28.9234C58 27.8217 57.5624 26.7652 56.7834 25.9862C56.0044 25.2072 54.9478 24.7695 53.8462 24.7695H41.3846V23.3849C41.3916 23.188 41.3565 22.9919 41.2816 22.8097C41.2068 22.6274 41.0939 22.4633 40.9505 22.3281C40.8071 22.193 40.6366 22.09 40.4502 22.0261C40.2638 21.9622 40.066 21.9387 39.8698 21.9574ZM24.7692 28.9234H55.2308V46.9234H24.7692V28.9234ZM50.9038 30.308C50.5937 30.3413 50.3039 30.4784 50.0814 30.6971L45.5385 35.2414L42.3802 32.0803C42.2289 31.9251 42.0433 31.8076 41.8384 31.7372C41.6334 31.6668 41.4148 31.6455 41.2001 31.675C40.9854 31.7045 40.7806 31.7839 40.6022 31.907C40.4239 32.0301 40.2769 32.1933 40.1731 32.3835L36.0622 39.5669L34.3743 35.3258C34.2923 35.1069 34.1563 34.9122 33.9788 34.76C33.8012 34.6078 33.5881 34.5031 33.3592 34.4555C33.1302 34.408 32.893 34.4192 32.6696 34.4881C32.4461 34.557 32.2438 34.6813 32.0814 34.8495L27.9275 39.0034C27.7966 39.1342 27.6928 39.2895 27.6219 39.4605C27.551 39.6315 27.5145 39.8147 27.5144 39.9998C27.5143 40.1849 27.5507 40.3682 27.6215 40.5392C27.6923 40.7102 27.796 40.8656 27.9268 40.9965C28.0577 41.1275 28.213 41.2313 28.384 41.3022C28.5549 41.3731 28.7382 41.4096 28.9233 41.4097C29.1084 41.4097 29.2916 41.3734 29.4627 41.3026C29.6337 41.2318 29.7891 41.1281 29.92 40.9972L32.5591 38.3582L34.5502 43.2902C34.6441 43.5375 34.807 43.7528 35.0195 43.9104C35.232 44.0681 35.4852 44.1615 35.7492 44.1797C36.0132 44.198 36.2769 44.1401 36.509 44.0132C36.7411 43.8862 36.932 43.6953 37.0591 43.4632L41.6892 35.3715L44.5443 38.228C44.6734 38.3616 44.8281 38.4678 44.9991 38.5404C45.1702 38.6129 45.3541 38.6503 45.5398 38.6503C45.7256 38.6503 45.9095 38.6129 46.0805 38.5404C46.2516 38.4678 46.4063 38.3616 46.5354 38.228L52.0738 32.6895C52.2926 32.487 52.4401 32.2194 52.4945 31.9263C52.549 31.6333 52.5074 31.3305 52.376 31.063C52.2445 30.7954 52.0303 30.5775 51.7651 30.4414C51.4998 30.3054 51.1978 30.2586 50.9038 30.308Z" fill="#CC0B9E"/>
</g>
<defs>
<clipPath id="clip0_3081_22203">
<rect width="36" height="36" fill="white" transform="translate(22 22)"/>
</clipPath>
</defs>
</svg>
