<svg width="79" height="79" viewBox="0 0 79 79" fill="none" xmlns="http://www.w3.org/2000/svg">
<rect opacity="0.1" width="79" height="79" rx="15" fill="#FF004F" fill-opacity="0.6"/>
<path d="M47.5 34.5H34V31.5H47.5V34.5ZM32.5 31.5H29.5V34.5H32.5V31.5ZM32.5 27H29.5V30H32.5V27ZM37 27H34V30H37V27ZM41.5 46.5V49.5H43C43.825 49.5 44.5 50.175 44.5 51H55V54H44.5C44.5 54.825 43.825 55.5 43 55.5H37C36.175 55.5 35.5 54.825 35.5 54H25V51H35.5C35.5 50.175 36.175 49.5 37 49.5H38.5V46.5H28C26.335 46.5 25 45.165 25 43.5V25.5C25 24.7044 25.3161 23.9413 25.8787 23.3787C26.4413 22.8161 27.2044 22.5 28 22.5H52C53.665 22.5 55 23.835 55 25.5V43.5C55 45.165 53.665 46.5 52 46.5H41.5ZM52 43.5V25.5H28V43.5H52ZM38.5 30H50.5V27H38.5V30ZM29.5 39H38.5V36H29.5V39ZM41.5 42H50.5V39H41.5V42Z" fill="#FF004F"/>
</svg>
