<svg width="40" height="40" viewBox="0 0 40 40" fill="none" xmlns="http://www.w3.org/2000/svg">
<g id="user-5-fill">
<path id="Path 39" fill-rule="evenodd" clip-rule="evenodd" d="M7.29275 12.6386C5.53608 18.1778 7.56914 24.2167 12.3181 27.5657H12.3164L8.84476 35.5007C8.73223 35.7585 8.75738 36.0557 8.91164 36.291C9.0659 36.5262 9.32844 36.6677 9.60976 36.6673H30.3931C30.6749 36.668 30.9379 36.5262 31.0922 36.2905C31.2466 36.0548 31.2714 35.757 31.1581 35.499L27.6864 27.5657C32.4354 24.2167 34.4684 18.1778 32.7118 12.6386C30.9551 7.09945 25.8133 3.33594 20.0023 3.33594C14.1912 3.33594 9.04943 7.09945 7.29275 12.6386ZM20.0015 23.3271C16.9447 23.3271 14.2792 21.2493 13.5332 18.2849L16.7665 17.4766C17.1358 18.9628 18.4701 20.0062 20.0015 20.0062C21.5329 20.0062 22.8673 18.9628 23.2365 17.4766L26.4699 18.2849C25.7239 21.2493 23.0583 23.3271 20.0015 23.3271Z" fill="#CB41F4"/>
</g>
</svg>
