<svg width="79" height="79" viewBox="0 0 79 79" fill="none" xmlns="http://www.w3.org/2000/svg">
<rect opacity="0.1" width="79" height="79" rx="15" fill="#4CAF50"/>
<g clip-path="url(#clip0_2735_15575)">
<path d="M33.75 26.25C31.2887 26.25 29.325 28.0512 28.9062 30.3912C26.5437 30.9862 24.4925 32.525 23.5938 34.9613H23.555L20.8987 42.4225C20.311 43.613 20.0036 44.9223 20 46.25C20 51.0688 23.9313 55 28.75 55C33.0912 55 36.7087 51.8125 37.3825 47.6562C38.0766 48.3518 39.0174 48.7449 40 48.75C41.0163 48.75 41.9375 48.325 42.6175 47.6562C43.2913 51.8112 46.9088 55 51.25 55C56.0687 55 60 51.0688 60 46.25C60 45.0338 59.75 43.8675 59.2962 42.8125L56.4463 34.8438L56.4062 34.805V34.7662C55.4938 32.5487 53.4712 31.0012 51.0938 30.3912C50.6737 28.05 48.7113 26.25 46.25 26.25C43.9312 26.25 42.0462 27.8563 41.4837 30H38.515C37.955 27.8563 36.0688 26.25 33.75 26.25ZM33.75 28.75C35.2388 28.75 36.25 29.7613 36.25 31.25V32.5H43.75V31.25C43.75 29.7613 44.7612 28.75 46.25 28.75C47.7388 28.75 48.75 29.7613 48.75 31.25V32.3825L49.8825 32.5C51.7388 32.695 53.34 33.9887 54.0625 35.6637C54.0725 35.6887 54.0913 35.7175 54.1012 35.7425L55.0387 38.3988C53.8603 37.8159 52.5647 37.5086 51.25 37.5C47.5925 37.5 44.4675 39.77 43.1637 42.9688C42.8221 42.4407 42.3535 42.0066 41.8008 41.7064C41.2481 41.4061 40.629 41.2492 40 41.25C38.6875 41.25 37.505 41.9288 36.8363 42.9688C35.5325 39.77 32.4075 37.5 28.75 37.5C27.4125 37.5 26.1375 37.8175 25 38.36L25.9375 35.82V35.7812C26.665 33.8475 28.1988 32.7 30.1175 32.5L31.25 32.3825V31.25C31.25 29.7613 32.2612 28.75 33.75 28.75ZM28.75 40C32.2162 40 35 42.7838 35 46.25C35 49.7162 32.2162 52.5 28.75 52.5C25.2838 52.5 22.5 49.7162 22.5 46.25C22.5 45.3662 22.72 44.55 23.0475 43.7887C23.0662 43.74 23.0663 43.6812 23.085 43.6325C23.5819 42.5478 24.38 41.6288 25.3843 40.9848C26.3887 40.3408 27.5569 39.9989 28.75 40ZM51.25 40C54.7163 40 57.5 42.7838 57.5 46.25C57.5 49.7162 54.7163 52.5 51.25 52.5C47.7838 52.5 45 49.7162 45 46.25C45 42.7838 47.7838 40 51.25 40ZM40 43.75C40.7038 43.75 41.25 44.2975 41.25 45C41.25 45.7025 40.7025 46.25 40 46.25C39.2975 46.25 38.75 45.7025 38.75 45C38.75 44.2975 39.2975 43.75 40 43.75Z" fill="#4CAF50"/>
</g>
<defs>
<clipPath id="clip0_2735_15575">
<rect width="40" height="40" fill="white" transform="translate(20 20)"/>
</clipPath>
</defs>
</svg>
