<svg width="107" height="23" viewBox="0 0 107 23" fill="none" xmlns="http://www.w3.org/2000/svg">
<g clip-path="url(#clip0_2247_519)">
<g clip-path="url(#clip1_2247_519)">
<g clip-path="url(#clip2_2247_519)">
<path d="M54.0767 18.4515H57.0869L60.498 9.26855H60.5358L63.9276 18.4515H66.9765L70.3301 5.11523H67.3577L65.0899 14.3363H65.0521L61.8124 5.11523H59.2404L56.0012 14.3363H55.9629L53.7145 5.11523H50.7227L54.0767 18.4515Z" fill="#36364A"/>
<path d="M71.1836 18.4509H74.0035V13.0592C74.0035 11.5922 75.1091 10.5824 76.7474 10.5824C78.3861 10.5824 79.3769 11.516 79.3769 13.0592V18.4509H82.1973V12.6781C82.1973 9.95373 80.2534 8.06758 77.3571 8.06758C76.0234 8.06758 74.88 8.50578 74.0418 9.30596H74.0035V4.54297H71.1836V18.4509Z" fill="#36364A"/>
<path d="M88.9005 18.7374C92.2347 18.7374 94.5974 16.4131 94.5974 13.4028C94.5974 10.3927 92.2347 8.06836 88.9005 8.06836C85.5848 8.06836 83.2031 10.3927 83.2031 13.4028C83.2031 16.4131 85.5848 18.7374 88.9005 18.7374ZM88.9005 16.2606C87.1475 16.2606 86.023 15.0413 86.023 13.4028C86.023 11.7644 87.1475 10.5451 88.9005 10.5451C90.6535 10.5451 91.7775 11.7644 91.7775 13.4028C91.7775 15.0413 90.6535 16.2606 88.9005 16.2606Z" fill="#36364A"/>
<path d="M95.6523 22.7383H98.4722V17.6705H98.5104C99.1584 18.2992 100.416 18.7374 101.673 18.7374C104.665 18.7374 106.894 16.4511 106.894 13.4028C106.894 10.3736 104.646 8.06836 101.654 8.06836C100.358 8.06836 99.1773 8.44938 98.3961 9.24956H98.3579V8.35413H95.6523V22.7383ZM101.235 16.2606C99.6727 16.2606 98.4722 15.2509 98.4722 14.0316V12.7551C98.4722 11.5739 99.7298 10.5642 101.216 10.5642C102.912 10.5642 104.074 11.7072 104.074 13.4028C104.074 15.0985 102.893 16.2606 101.235 16.2606Z" fill="#36364A"/>
<path fill-rule="evenodd" clip-rule="evenodd" d="M45.1333 4.19918C41.3237 0.402732 35.1624 0.407572 31.3586 4.2137L15.954 19.56C20.1326 23.22 26.4633 23.0718 30.4006 19.132L45.2224 4.30094L45.1333 4.19918ZM15.4927 4.28367C19.3013 0.472693 25.4735 0.472693 29.282 4.28367L29.3978 4.39949L15.1185 18.6877L8.10807 11.6729L15.4927 4.28367ZM7.22097 10.7889L0.226562 3.85212C4.05692 0.478575 9.89738 0.622424 13.5563 4.28367L13.67 4.39737L7.22097 10.7889Z" fill="#36364A"/>
</g>
</g>
</g>
<defs>
<clipPath id="clip0_2247_519">
<rect width="107" height="22" fill="white" transform="translate(0 0.769531)"/>
</clipPath>
<clipPath id="clip1_2247_519">
<rect width="107" height="22" fill="white" transform="translate(0 0.769531)"/>
</clipPath>
<clipPath id="clip2_2247_519">
<rect width="107" height="22" fill="white" transform="translate(0 0.769531)"/>
</clipPath>
</defs>
</svg>
