<svg width="56" height="56" viewBox="0 0 56 56" fill="none" xmlns="http://www.w3.org/2000/svg">
<rect width="56" height="56" rx="8.4" fill="#FBF9F0"/>
<path d="M22.5451 36.4492C24.4901 36.4492 25.7911 37.1763 26.3651 37.5863C26.5761 37.7033 27.1741 38.0548 27.3026 38.0662V20.3483C26.5411 18.9303 24.3026 17.7823 21.9826 17.7823C19.0526 17.7823 16.5686 19.4698 16.0176 20.6063V37.1532C16.0176 37.9268 16.4746 38.2197 17.0256 38.2197C17.4706 38.2197 17.7636 38.0673 18.0451 37.8328C18.7366 37.2118 20.3651 36.4492 22.5451 36.4492ZM33.4671 36.4497C35.6466 36.4497 37.2641 37.2118 37.9671 37.8328C38.2361 38.0553 38.5296 38.2192 38.9746 38.2192C39.5256 38.2192 39.9826 37.9268 39.9826 37.1532V20.6053C39.4316 19.4683 36.9591 17.7812 34.0291 17.7812C31.7091 17.7812 29.4706 18.9293 28.7091 20.3473V38.0903C28.8381 38.0783 29.4356 37.7153 29.6581 37.5863C30.2206 37.1763 31.5216 36.4497 33.4671 36.4497Z" fill="#FADA5E"/>
</svg>
